<svg xmlns="http://www.w3.org/2000/svg" xmlns:xlink="http://www.w3.org/1999/xlink" width="1000" zoomAndPan="magnify" viewBox="0 0 750 374.999991" height="500" preserveAspectRatio="xMidYMid meet" version="1.0"><defs><g/></defs><g fill="#e4e2dd" fill-opacity="1"><g transform="translate(118.078924, 243.567964)"><g><path d="M 9.09375 -124.9375 L 53.765625 -124.9375 C 65.773438 -124.9375 75.566406 -121.726562 83.140625 -115.3125 C 90.710938 -108.90625 94.5 -99.742188 94.5 -87.828125 C 94.5 -78.640625 92.203125 -70.941406 87.609375 -64.734375 C 83.015625 -58.523438 76.78125 -54.160156 68.90625 -51.640625 L 111.90625 0 L 75.71875 0 L 37.5625 -49.375 L 37.5625 0 L 9.09375 0 Z M 37.5625 -69.515625 L 40.890625 -69.515625 C 43.515625 -69.515625 45.734375 -69.5625 47.546875 -69.65625 C 49.367188 -69.757812 51.441406 -70.113281 53.765625 -70.71875 C 56.085938 -71.320312 57.953125 -72.179688 59.359375 -73.296875 C 60.773438 -74.410156 61.988281 -76.023438 63 -78.140625 C 64.007812 -80.265625 64.515625 -82.835938 64.515625 -85.859375 C 64.515625 -88.890625 64.007812 -91.460938 63 -93.578125 C 61.988281 -95.703125 60.773438 -97.316406 59.359375 -98.421875 C 57.953125 -99.535156 56.085938 -100.394531 53.765625 -101 C 51.441406 -101.613281 49.367188 -101.96875 47.546875 -102.0625 C 45.734375 -102.164062 43.515625 -102.21875 40.890625 -102.21875 L 37.5625 -102.21875 Z M 37.5625 -69.515625 "/></g></g></g><g fill="#e4e2dd" fill-opacity="1"><g transform="translate(217.268854, 243.567964)"><g><path d="M 14.390625 -9.609375 C 7.117188 -17.535156 3.484375 -27.253906 3.484375 -38.765625 C 3.484375 -50.273438 7.117188 -60.015625 14.390625 -67.984375 C 21.660156 -75.960938 30.894531 -79.953125 42.09375 -79.953125 C 52.394531 -79.953125 60.878906 -76.722656 67.546875 -70.265625 L 67.546875 -77.6875 L 94.34375 -77.6875 L 94.34375 0 L 67.84375 0 L 67.84375 -8.78125 L 67.546875 -8.78125 C 60.878906 -1.414062 52.394531 2.265625 42.09375 2.265625 C 30.894531 2.265625 21.660156 -1.691406 14.390625 -9.609375 Z M 37.171875 -51.9375 C 33.691406 -48.507812 31.953125 -44.117188 31.953125 -38.765625 C 31.953125 -33.410156 33.617188 -29.039062 36.953125 -25.65625 C 40.285156 -22.28125 44.675781 -20.59375 50.125 -20.59375 C 55.375 -20.59375 59.6875 -22.304688 63.0625 -25.734375 C 66.445312 -29.171875 68.140625 -33.515625 68.140625 -38.765625 C 68.140625 -44.117188 66.398438 -48.507812 62.921875 -51.9375 C 59.441406 -55.375 55.175781 -57.09375 50.125 -57.09375 C 44.976562 -57.09375 40.660156 -55.375 37.171875 -51.9375 Z M 37.171875 -51.9375 "/></g></g></g><g fill="#e4e2dd" fill-opacity="1"><g transform="translate(311.461394, 243.567964)"><g><path d="M 9.09375 -124.9375 L 54.671875 -124.9375 C 67.390625 -124.9375 77.6875 -121.65625 85.5625 -115.09375 C 93.4375 -108.53125 97.375 -98.988281 97.375 -86.46875 C 97.375 -73.945312 93.382812 -64.128906 85.40625 -57.015625 C 77.4375 -49.898438 67.191406 -46.34375 54.671875 -46.34375 L 37.5625 -46.34375 L 37.5625 0 L 9.09375 0 Z M 37.5625 -69.0625 L 45.578125 -69.0625 C 51.941406 -69.0625 57.164062 -70.347656 61.25 -72.921875 C 65.34375 -75.492188 67.390625 -79.707031 67.390625 -85.5625 C 67.390625 -91.519531 65.34375 -95.785156 61.25 -98.359375 C 57.164062 -100.929688 51.941406 -102.21875 45.578125 -102.21875 L 37.5625 -102.21875 Z M 37.5625 -69.0625 "/></g></g></g><g fill="#e4e2dd" fill-opacity="1"><g transform="translate(403.079526, 243.567964)"><g><path d="M 37.5625 -50.125 L 37.5625 0 L 9.09375 0 L 9.09375 -124.9375 L 37.5625 -124.9375 L 37.5625 -75.109375 L 77.84375 -75.109375 L 77.84375 -124.9375 L 106.3125 -124.9375 L 106.3125 0 L 77.84375 0 L 77.84375 -50.125 Z M 37.5625 -50.125 "/></g></g></g><g fill="#e4e2dd" fill-opacity="1"><g transform="translate(509.235505, 243.567964)"><g><path d="M 11.65625 -120.984375 C 14.789062 -124.117188 18.523438 -125.6875 22.859375 -125.6875 C 27.203125 -125.6875 30.9375 -124.117188 34.0625 -120.984375 C 37.195312 -117.859375 38.765625 -114.125 38.765625 -109.78125 C 38.765625 -105.445312 37.195312 -101.710938 34.0625 -98.578125 C 30.9375 -95.453125 27.203125 -93.890625 22.859375 -93.890625 C 18.523438 -93.890625 14.789062 -95.453125 11.65625 -98.578125 C 8.53125 -101.710938 6.96875 -105.445312 6.96875 -109.78125 C 6.96875 -114.125 8.53125 -117.859375 11.65625 -120.984375 Z M 9.09375 -77.6875 L 9.09375 0 L 35.890625 0 L 35.890625 -77.6875 Z M 9.09375 -77.6875 "/></g></g></g><g fill="#e4e2dd" fill-opacity="1"><g transform="translate(545.730913, 243.567964)"><g><path d="M 50.421875 -58 C 45.378906 -58 41.039062 -56.128906 37.40625 -52.390625 C 33.769531 -48.660156 31.953125 -44.171875 31.953125 -38.921875 C 31.953125 -33.566406 33.769531 -29.019531 37.40625 -25.28125 C 41.039062 -21.550781 45.378906 -19.6875 50.421875 -19.6875 C 52.847656 -19.6875 55.144531 -19.988281 57.3125 -20.59375 C 59.488281 -21.195312 61.082031 -21.800781 62.09375 -22.40625 L 63.453125 -23.328125 L 72.53125 -4.6875 C 71.832031 -4.1875 70.847656 -3.554688 69.578125 -2.796875 C 68.316406 -2.046875 65.441406 -1.015625 60.953125 0.296875 C 56.460938 1.609375 51.640625 2.265625 46.484375 2.265625 C 35.078125 2.265625 25.054688 -1.742188 16.421875 -9.765625 C 7.796875 -17.796875 3.484375 -27.410156 3.484375 -38.609375 C 3.484375 -49.921875 7.796875 -59.640625 16.421875 -67.765625 C 25.054688 -75.890625 35.078125 -79.953125 46.484375 -79.953125 C 51.640625 -79.953125 56.382812 -79.347656 60.71875 -78.140625 C 65.0625 -76.929688 68.144531 -75.71875 69.96875 -74.5 L 72.53125 -72.6875 L 63.453125 -54.359375 C 60.117188 -56.785156 55.773438 -58 50.421875 -58 Z M 50.421875 -58 "/></g></g></g><g fill="#e4e2dd" fill-opacity="1"><g transform="translate(610.847751, 243.567964)"><g><path d="M 13.625 -122.578125 C 16.65625 -125.660156 20.34375 -127.203125 24.6875 -127.203125 C 29.03125 -127.203125 32.765625 -125.632812 35.890625 -122.5 C 39.015625 -119.375 40.578125 -115.644531 40.578125 -111.3125 C 40.578125 -97.976562 32.90625 -84.898438 17.5625 -72.078125 L 10.453125 -77.6875 C 11.054688 -78.289062 11.835938 -79.125 12.796875 -80.1875 C 13.753906 -81.25 15.191406 -83.46875 17.109375 -86.84375 C 19.023438 -90.226562 20.285156 -93.640625 20.890625 -97.078125 C 17.460938 -97.878906 14.640625 -99.59375 12.421875 -102.21875 C 10.203125 -104.84375 9.09375 -107.875 9.09375 -111.3125 C 9.09375 -115.75 10.601562 -119.503906 13.625 -122.578125 Z M 13.625 -122.578125 "/></g></g></g><g fill="#e4e2dd" fill-opacity="1"><g transform="translate(645.677371, 243.567964)"><g><path d="M 55.125 -127.203125 C 61.882812 -127.203125 68.492188 -126.21875 74.953125 -124.25 C 81.421875 -122.28125 86.21875 -120.335938 89.34375 -118.421875 L 93.890625 -115.390625 L 82.375 -92.6875 C 81.46875 -93.289062 80.207031 -94.070312 78.59375 -95.03125 C 76.976562 -95.988281 73.945312 -97.273438 69.5 -98.890625 C 65.0625 -100.503906 60.925781 -101.3125 57.09375 -101.3125 C 52.34375 -101.3125 48.679688 -100.300781 46.109375 -98.28125 C 43.535156 -96.257812 42.25 -93.535156 42.25 -90.109375 C 42.25 -88.390625 42.851562 -86.796875 44.0625 -85.328125 C 45.28125 -83.867188 47.351562 -82.304688 50.28125 -80.640625 C 53.207031 -78.972656 55.78125 -77.632812 58 -76.625 C 60.21875 -75.613281 63.648438 -74.097656 68.296875 -72.078125 C 76.367188 -68.648438 83.257812 -63.984375 88.96875 -58.078125 C 94.675781 -52.171875 97.53125 -45.484375 97.53125 -38.015625 C 97.53125 -30.847656 96.238281 -24.585938 93.65625 -19.234375 C 91.082031 -13.878906 87.550781 -9.6875 83.0625 -6.65625 C 78.570312 -3.632812 73.597656 -1.394531 68.140625 0.0625 C 62.691406 1.53125 56.785156 2.265625 50.421875 2.265625 C 44.972656 2.265625 39.625 1.707031 34.375 0.59375 C 29.125 -0.507812 24.734375 -1.894531 21.203125 -3.5625 C 17.671875 -5.226562 14.488281 -6.867188 11.65625 -8.484375 C 8.832031 -10.097656 6.765625 -11.457031 5.453125 -12.5625 L 3.484375 -14.234375 L 17.71875 -38.15625 C 18.925781 -37.144531 20.585938 -35.859375 22.703125 -34.296875 C 24.828125 -32.734375 28.585938 -30.640625 33.984375 -28.015625 C 39.390625 -25.390625 44.164062 -24.078125 48.3125 -24.078125 C 60.320312 -24.078125 66.328125 -28.164062 66.328125 -36.34375 C 66.328125 -38.0625 65.894531 -39.648438 65.03125 -41.109375 C 64.175781 -42.578125 62.664062 -44.039062 60.5 -45.5 C 58.332031 -46.96875 56.414062 -48.128906 54.75 -48.984375 C 53.082031 -49.847656 50.351562 -51.160156 46.5625 -52.921875 C 42.78125 -54.691406 39.976562 -56.03125 38.15625 -56.9375 C 30.582031 -60.675781 24.726562 -65.347656 20.59375 -70.953125 C 16.457031 -76.554688 14.390625 -82.585938 14.390625 -89.046875 C 14.390625 -100.253906 18.523438 -109.414062 26.796875 -116.53125 C 35.078125 -123.644531 44.519531 -127.203125 55.125 -127.203125 Z M 55.125 -127.203125 "/></g></g></g><g fill="#e4e2dd" fill-opacity="1"><g transform="translate(41.47871, 249.552549)"><g><path d="M 17.453125 9.515625 L 25.375 -13.59375 C 32.945312 -11.75 40.265625 -14.359375 47.328125 -21.421875 C 50.609375 -24.703125 52.609375 -28.804688 53.328125 -33.734375 C 54.046875 -38.660156 52.226562 -43.300781 47.875 -47.65625 L 43.796875 -51.734375 C 44.148438 -44.648438 40.007812 -36.789062 31.375 -28.15625 C 23.457031 -20.238281 14.125 -16.507812 3.375 -16.96875 C -7.363281 -17.4375 -16.800781 -21.738281 -24.9375 -29.875 C -33.082031 -38.019531 -37.398438 -47.476562 -37.890625 -58.25 C -38.390625 -69.03125 -34.679688 -78.378906 -26.765625 -86.296875 C -19.691406 -93.367188 -11.625 -97.082031 -2.5625 -97.4375 L -2.234375 -97.765625 L -7.171875 -102.703125 L 11.765625 -121.640625 L 68.203125 -65.203125 C 77.117188 -56.285156 81.039062 -46.4375 79.96875 -35.65625 C 78.90625 -24.882812 73.519531 -14.644531 63.8125 -4.9375 C 48.101562 10.769531 32.648438 15.585938 17.453125 9.515625 Z M -10.4375 -63.015625 C -10.476562 -58.128906 -8.601562 -53.789062 -4.8125 -50 C -1.03125 -46.21875 3.234375 -44.3125 7.984375 -44.28125 C 12.734375 -44.25 17.03125 -46.15625 20.875 -50 C 24.59375 -53.71875 26.429688 -57.984375 26.390625 -62.796875 C 26.359375 -67.617188 24.488281 -71.882812 20.78125 -75.59375 C 16.988281 -79.382812 12.644531 -81.257812 7.75 -81.21875 C 2.863281 -81.1875 -1.363281 -79.382812 -4.9375 -75.8125 C -8.570312 -72.175781 -10.40625 -67.910156 -10.4375 -63.015625 Z M -10.4375 -63.015625 "/></g></g></g></svg>