<svg xmlns="http://www.w3.org/2000/svg" xmlns:xlink="http://www.w3.org/1999/xlink" width="1000" zoomAndPan="magnify" viewBox="0 0 750 374.999991" height="500" preserveAspectRatio="xMidYMid meet" version="1.0"><defs><g/></defs><g fill="#e4e2dd" fill-opacity="1"><g transform="translate(-2.221461, 229.511249)"><g><path d="M 83.0625 -105.75 L 83.0625 -43.375 C 83.0625 -38.15625 82.910156 -33.300781 82.609375 -28.8125 C 81.992188 -19.207031 78.566406 -11.644531 72.328125 -6.125 C 66.097656 -0.613281 56.957031 2.140625 44.90625 2.140625 C 32.945312 2.140625 23.875 -0.945312 17.6875 -7.125 C 11.507812 -13.300781 8.269531 -21.960938 7.96875 -33.109375 L 7.8125 -38.46875 L 28.96875 -38.46875 L 29.265625 -33.109375 C 29.984375 -20.128906 35.601562 -13.640625 46.125 -13.640625 C 55.53125 -13.640625 60.742188 -19.101562 61.765625 -30.03125 C 61.859375 -32.28125 61.90625 -36.007812 61.90625 -41.21875 L 61.90625 -105.75 Z M 83.0625 -105.75 "/></g></g></g><g fill="#e4e2dd" fill-opacity="1"><g transform="translate(80.359058, 229.511249)"><g><path d="M 89.953125 -17.625 L 89.953125 0 L 13.640625 0 L 13.640625 -105.75 L 34.78125 -105.75 L 34.78125 -17.625 Z M 89.953125 -17.625 "/></g></g></g><g fill="#e4e2dd" fill-opacity="1"><g transform="translate(164.165291, 229.511249)"><g><path d="M 11.796875 -108.734375 C 13.941406 -110.828125 16.75 -111.875 20.21875 -111.875 C 23.695312 -111.875 26.507812 -110.828125 28.65625 -108.734375 C 30.800781 -106.640625 31.875 -103.957031 31.875 -100.6875 C 31.875 -97.3125 30.800781 -94.601562 28.65625 -92.5625 C 26.507812 -90.519531 23.695312 -89.5 20.21875 -89.5 C 16.75 -89.5 13.941406 -90.519531 11.796875 -92.5625 C 9.648438 -94.601562 8.578125 -97.3125 8.578125 -100.6875 C 8.578125 -103.957031 9.648438 -106.640625 11.796875 -108.734375 Z M 30.796875 0 L 9.65625 0 L 9.65625 -81.53125 L 30.796875 -81.53125 Z M 30.796875 0 "/></g></g></g><g fill="#e4e2dd" fill-opacity="1"><g transform="translate(196.184801, 229.511249)"><g><path d="M 85.671875 -60.84375 C 86.078125 -57.164062 86.28125 -52.207031 86.28125 -45.96875 L 86.28125 0 L 65.125 0 L 65.125 -43.0625 C 65.125 -47.863281 65.023438 -51.644531 64.828125 -54.40625 C 64.109375 -64.007812 58.894531 -68.8125 49.1875 -68.8125 C 43.675781 -68.8125 39.234375 -66.226562 35.859375 -61.0625 C 32.484375 -55.90625 30.796875 -47.960938 30.796875 -37.234375 L 30.796875 0 L 9.65625 0 L 9.65625 -81.53125 L 30.796875 -81.53125 L 30.796875 -68.34375 L 37.09375 -78 C 42.40625 -81.78125 48.941406 -83.671875 56.703125 -83.671875 C 65.285156 -83.671875 72.050781 -81.675781 77 -77.6875 C 81.957031 -73.707031 84.847656 -68.09375 85.671875 -60.84375 Z M 85.671875 -60.84375 "/></g></g></g><g fill="#e4e2dd" fill-opacity="1"><g transform="translate(282.595714, 229.511249)"><g><path d="M 57.015625 0 L 55.46875 -11.953125 L 51.484375 -3.21875 C 46.171875 0.351562 39.429688 2.140625 31.265625 2.140625 C 23.804688 2.140625 17.570312 0.046875 12.5625 -4.140625 C 7.5625 -8.328125 5.0625 -14.148438 5.0625 -21.609375 C 5.0625 -30.597656 8.863281 -37.519531 16.46875 -42.375 C 24.082031 -47.226562 35.242188 -49.65625 49.953125 -49.65625 L 55.171875 -49.65625 L 55.171875 -51.34375 C 55.171875 -54.613281 55.066406 -57.164062 54.859375 -59 C 54.148438 -65.539062 49.960938 -68.8125 42.296875 -68.8125 C 33.816406 -68.8125 29.269531 -64.210938 28.65625 -55.015625 L 8.125 -54.859375 C 8.425781 -63.847656 11.820312 -70.894531 18.3125 -76 C 24.800781 -81.113281 33.050781 -83.671875 43.0625 -83.671875 C 63.394531 -83.671875 74.273438 -75.648438 75.703125 -59.609375 C 76.015625 -55.734375 76.171875 -51.546875 76.171875 -47.046875 L 76.171875 -20.6875 C 76.171875 -14.457031 76.679688 -7.5625 77.703125 0 Z M 39.390625 -12.71875 C 43.878906 -12.71875 47.628906 -14.25 50.640625 -17.3125 C 53.660156 -20.382812 55.171875 -24.625 55.171875 -30.03125 L 55.171875 -36.625 C 36.367188 -37.957031 26.96875 -33.515625 26.96875 -23.296875 C 26.96875 -16.242188 31.109375 -12.71875 39.390625 -12.71875 Z M 39.390625 -12.71875 "/></g></g></g><g fill="#e4e2dd" fill-opacity="1"><g transform="translate(359.966916, 229.511249)"><g><path d="M 51.1875 -83.515625 C 53.53125 -83.515625 55.519531 -83.3125 57.15625 -82.90625 L 57.15625 -65.890625 C 48.164062 -66.503906 41.523438 -64.585938 37.234375 -60.140625 C 32.941406 -55.703125 30.796875 -48.117188 30.796875 -37.390625 L 30.796875 0 L 9.65625 0 L 9.65625 -81.53125 L 30.796875 -81.53125 L 30.796875 -66.65625 L 37.234375 -78 C 41.222656 -81.675781 45.875 -83.515625 51.1875 -83.515625 Z M 51.1875 -83.515625 "/></g></g></g><g fill="#e4e2dd" fill-opacity="1"><g transform="translate(409.452923, 229.511249)"><g><path d="M 83.671875 -42.453125 C 83.671875 -39.484375 83.570312 -37.082031 83.375 -35.25 L 25.4375 -35.25 C 26.664062 -20.226562 32.953125 -12.71875 44.296875 -12.71875 C 48.890625 -12.71875 52.691406 -13.941406 55.703125 -16.390625 C 58.722656 -18.847656 60.585938 -22.222656 61.296875 -26.515625 L 82.453125 -26.515625 C 80.410156 -17.210938 75.9375 -10.109375 69.03125 -5.203125 C 62.132812 -0.304688 53.734375 2.140625 43.828125 2.140625 C 32.078125 2.140625 22.523438 -1.507812 15.171875 -8.8125 C 7.816406 -16.113281 4.140625 -26.660156 4.140625 -40.453125 C 4.140625 -53.128906 7.941406 -63.5 15.546875 -71.5625 C 23.160156 -79.632812 33.148438 -83.671875 45.515625 -83.671875 C 57.472656 -83.671875 66.820312 -79.738281 73.5625 -71.875 C 80.300781 -64.007812 83.671875 -54.203125 83.671875 -42.453125 Z M 44.59375 -68.8125 C 34.070312 -68.8125 27.890625 -62.222656 26.046875 -49.046875 L 61.90625 -49.046875 C 60.476562 -62.222656 54.707031 -68.8125 44.59375 -68.8125 Z M 44.59375 -68.8125 "/></g></g></g><g fill="#e4e2dd" fill-opacity="1"><g transform="translate(489.275554, 229.511249)"><g><path d="M 38.765625 -83.671875 C 48.171875 -83.671875 55.679688 -81.320312 61.296875 -76.625 C 66.921875 -71.925781 70.191406 -65.691406 71.109375 -57.921875 L 49.953125 -57.921875 C 48.523438 -65.796875 44.335938 -69.734375 37.390625 -69.734375 C 34.328125 -69.734375 31.953125 -68.941406 30.265625 -67.359375 C 28.578125 -65.773438 27.734375 -63.65625 27.734375 -61 C 27.734375 -57.925781 29.113281 -55.46875 31.875 -53.625 C 34.632812 -51.789062 39.4375 -50.007812 46.28125 -48.28125 C 55.164062 -46.03125 61.804688 -42.910156 66.203125 -38.921875 C 70.597656 -34.941406 72.796875 -29.375 72.796875 -22.21875 C 72.796875 -14.351562 69.648438 -8.328125 63.359375 -4.140625 C 57.078125 0.046875 49.035156 2.140625 39.234375 2.140625 C 29.015625 2.140625 20.738281 -0.101562 14.40625 -4.59375 C 8.070312 -9.09375 4.34375 -15.835938 3.21875 -24.828125 L 24.359375 -24.828125 C 25.179688 -20.535156 26.945312 -17.289062 29.65625 -15.09375 C 32.363281 -12.894531 35.65625 -11.796875 39.53125 -11.796875 C 43.113281 -11.796875 46 -12.5625 48.1875 -14.09375 C 50.382812 -15.625 51.484375 -17.820312 51.484375 -20.6875 C 51.484375 -23.851562 50.003906 -26.429688 47.046875 -28.421875 C 44.085938 -30.421875 39.082031 -32.285156 32.03125 -34.015625 C 23.75 -36.066406 17.410156 -39.003906 13.015625 -42.828125 C 8.628906 -46.660156 6.4375 -51.898438 6.4375 -58.546875 C 6.4375 -66.304688 9.375 -72.429688 15.25 -76.921875 C 21.125 -81.421875 28.960938 -83.671875 38.765625 -83.671875 Z M 38.765625 -83.671875 "/></g></g></g><g fill="#e4e2dd" fill-opacity="1"><g transform="translate(573.58284, 231.57087)"><g><path d="M 2.8125 -109.453125 L 32.984375 -109.453125 C 47.472656 -109.453125 58.414062 -106.296875 65.8125 -99.984375 C 73.21875 -93.679688 76.921875 -84.378906 76.921875 -72.078125 C 76.921875 -64.785156 75.175781 -58.398438 71.6875 -52.921875 C 68.195312 -47.453125 63.21875 -43.234375 56.75 -40.265625 C 50.289062 -37.296875 42.738281 -35.8125 34.09375 -35.8125 L 32.671875 -35.8125 L 32.671875 0 L 2.8125 0 Z M 35.03125 -59.734375 C 38.882812 -59.734375 41.90625 -60.800781 44.09375 -62.9375 C 46.28125 -65.070312 47.375 -68.015625 47.375 -71.765625 C 47.375 -75.304688 46.253906 -78.039062 44.015625 -79.96875 C 41.773438 -81.90625 38.675781 -82.875 34.71875 -82.875 L 32.671875 -82.875 L 32.671875 -59.734375 Z M 35.03125 -59.734375 "/></g></g></g><g fill="#e4e2dd" fill-opacity="1"><g transform="translate(648.788034, 231.57087)"><g><path d="M 2.8125 -109.453125 L 32.671875 -109.453125 L 32.671875 -69.890625 L 63.328125 -69.890625 L 63.328125 -109.453125 L 93.1875 -109.453125 L 93.1875 0 L 63.328125 0 L 63.328125 -40.8125 L 32.671875 -40.8125 L 32.671875 0 L 2.8125 0 Z M 2.8125 -109.453125 "/></g></g></g></svg>