<svg xmlns="http://www.w3.org/2000/svg" xmlns:xlink="http://www.w3.org/1999/xlink" width="1000" zoomAndPan="magnify" viewBox="0 0 750 374.999991" height="500" preserveAspectRatio="xMidYMid meet" version="1.0"><defs><g/></defs><g fill="#e4e2dd" fill-opacity="1"><g transform="translate(77.914388, 355.049544)"><g><path d="M 66.734375 -321.5 C 67.53125 -321.78125 68.3125 -322.265625 68.703125 -322.296875 C 69.203125 -322.34375 69.359375 -322.765625 69.328125 -323.171875 C 69.21875 -324.390625 68.140625 -324.09375 66.65625 -322.3125 C 65.546875 -321 65.546875 -321 66.734375 -321.5 Z M 183.140625 -270.828125 C 182.984375 -270.40625 182.4375 -272 182 -274.5 C 175.65625 -304.078125 168.59375 -319.546875 155.734375 -331.546875 C 151.625 -335.5625 147.34375 -339.15625 146.0625 -339.84375 C 144.484375 -340.328125 141.265625 -342.1875 138.578125 -343.78125 C 117.75 -355.078125 89.796875 -353.359375 65.625 -338.9375 C 59.90625 -335.46875 58.5 -334.328125 59 -333.15625 C 59.515625 -331.875 59.515625 -331.875 58.421875 -332.796875 C 57.546875 -333.421875 56.921875 -333.578125 56.765625 -332.96875 C 56.421875 -332.203125 55.65625 -331.75 54.75 -331.671875 C 53.953125 -331.59375 52.78125 -330.890625 52.0625 -329.796875 C 51.328125 -328.90625 50.46875 -328.21875 49.84375 -328.375 C 49.609375 -328.5625 48.078125 -327.515625 46.671875 -326.171875 C 45.15625 -324.8125 44 -324.09375 43.796875 -324.078125 C 43.140625 -324.84375 37.015625 -320.140625 34.1875 -316.53125 C 32.515625 -314.546875 28.53125 -310.03125 25.09375 -306.375 C 14.265625 -294.109375 3.390625 -277.390625 -3.34375 -262.640625 C -8.96875 -250.046875 -14.21875 -234.3125 -16.328125 -224.765625 C -18.890625 -211.203125 -19.875 -199.203125 -19.328125 -189.5 C -19.078125 -184.328125 -18.796875 -178.734375 -19.046875 -176.984375 C -19.171875 -173.609375 -15.109375 -167.96875 -10.75 -165.796875 C -9.0625 -165.140625 -6.125 -162.9375 -4.125 -161.1875 C 0.390625 -157.21875 4.09375 -155.484375 6.828125 -155.734375 C 7.625 -155.796875 8.890625 -155.5 9.140625 -154.828125 C 9.828125 -153.875 18.515625 -154.625 18.953125 -155.6875 C 19.3125 -156.203125 20.46875 -156.921875 21.859375 -157.25 C 25.921875 -158.625 31.84375 -163.109375 32.265625 -165.203125 C 32.359375 -166.515625 32.078125 -167.3125 31.65625 -167.484375 C 31.234375 -167.640625 30.734375 -168.625 30.671875 -169.421875 C 30.5625 -170.734375 30.015625 -171.09375 29.21875 -170.828125 C 28.65625 -170.359375 28.25 -170.53125 27.984375 -171.125 C 27.734375 -171.71875 26.921875 -171.640625 25.046875 -170.859375 C 23.703125 -170.140625 19.671875 -168.453125 16.21875 -167.15625 C 0.25 -161.171875 -3.265625 -164.015625 -4.859375 -184.546875 C -6.96875 -210.828125 0.734375 -241.53125 16 -267.1875 C 18.59375 -271.375 20.484375 -275.3125 20.453125 -275.71875 C 20.375 -276.53125 39.75 -302.859375 44.59375 -308.28125 C 48.09375 -312.34375 54.34375 -317.6875 58.46875 -320.578125 C 60.390625 -321.765625 62.390625 -323.375 62.546875 -324 C 63.390625 -326 69.15625 -329.859375 69.46875 -328.578125 C 69.71875 -327.984375 71.703125 -328.78125 74.515625 -330.328125 C 77.328125 -331.796875 79.859375 -333.046875 80.28125 -332.875 C 81.84375 -332.609375 91.765625 -337.65625 92.28125 -338.921875 C 92.953125 -340.515625 97.59375 -342.125 97.703125 -340.921875 C 97.765625 -340.203125 98.90625 -340.09375 99.90625 -340.1875 L 101.90625 -340.5625 L 100.03125 -341.125 C 98.390625 -341.390625 98.78125 -341.625 101.546875 -342.28125 C 103.859375 -342.671875 104.890625 -342.578125 104.546875 -341.9375 C 104.203125 -341.171875 106.75 -341.203125 111.890625 -341.84375 C 122.75 -343.328125 120.4375 -341.578125 108.6875 -339.953125 C 103.578125 -339.09375 96.1875 -337.21875 92.546875 -335.78125 C 88.703125 -334.4375 84.84375 -333.078125 83.875 -332.78125 C 83.078125 -332.515625 81.703125 -331.78125 80.828125 -331.296875 C 80.0625 -330.8125 79.28125 -330.453125 78.859375 -330.703125 C 78.4375 -330.875 77.84375 -330.625 77.296875 -329.859375 C 76.859375 -329.015625 75.34375 -327.859375 73.765625 -327.109375 C 71.921875 -326.34375 70.78125 -325.328125 70.8125 -324.921875 C 70.90625 -323.921875 70.515625 -323.6875 77 -327.390625 C 91.765625 -335.5 113.84375 -340.40625 126.9375 -338.375 C 135.796875 -337.328125 142.359375 -334.34375 147.8125 -329.21875 C 153 -324.484375 152.765625 -324.859375 158.84375 -310.140625 C 163.34375 -299.34375 163.953125 -297.03125 166.59375 -283.125 C 169.65625 -267.921875 171.96875 -246.234375 171.46875 -239.15625 C 171.484375 -236.625 171.59375 -235.40625 172.203125 -235.453125 C 173.3125 -235.546875 173.171875 -232.390625 171.34375 -222.0625 C 170.6875 -217.828125 170.234375 -213.609375 170.09375 -212.984375 C 170.171875 -212.078125 168.984375 -205.984375 167.5625 -198.90625 C 165.015625 -184.953125 160.953125 -169.625 155.921875 -155.046875 C 154.140625 -149.59375 152.671875 -144.46875 152.71875 -143.859375 C 152.796875 -143.0625 152.4375 -142.4375 152.03125 -142.40625 C 151.625 -142.359375 151.375 -142.9375 151.296875 -143.734375 C 151.25 -144.34375 150.59375 -144.90625 149.703125 -144.828125 C 149.09375 -144.765625 146.953125 -145.71875 145.15625 -146.765625 C 132.09375 -153.96875 110.78125 -149.78125 95.015625 -136.796875 C 73.34375 -119.21875 48.15625 -74.453125 39.796875 -38.5 C 38.734375 -34.234375 37.375 -30.125 37.03125 -29.3125 C 35.78125 -27.359375 34.5 -17.5625 35.078125 -15.59375 C 35.46875 -14.59375 35.109375 -13.0625 34.359375 -12.171875 C 33.640625 -11.28125 33.3125 -10.234375 33.5625 -9.84375 C 33.984375 -9.6875 34.328125 -7.796875 34.515625 -5.765625 C 34.734375 -3.25 35.5 -1.46875 37.203125 0.5 C 38.34375 1.84375 41.078125 5.15625 43.015625 7.53125 C 45.03125 9.796875 47.15625 11.953125 47.765625 11.890625 C 48.5625 11.828125 49.640625 12.34375 50.5 12.875 C 51.28125 13.640625 53.203125 14.671875 54.890625 15.25 C 58.328125 16.375 64.359375 15.4375 68.734375 12.90625 C 77.5 8.484375 79.203125 7.015625 83.078125 3.515625 C 93.75 -5.875 108.75 -25.1875 119.75 -42.75 C 122.5625 -47.578125 126.03125 -53.390625 127.578125 -55.546875 C 128.796875 -57.796875 131.546875 -62.625 133.4375 -66.546875 C 135.65625 -70.40625 139.203125 -77.234375 141.65625 -82.015625 C 156.734375 -109.828125 171.25 -149.671875 179.8125 -186.859375 C 180.671875 -189.6875 181.265625 -192.28125 181.453125 -192.515625 C 183.328125 -194.296875 186.8125 -226.671875 186.484375 -239.765625 C 186.21875 -247.28125 183.578125 -272.90625 183.140625 -270.828125 Z M 46.09375 -318.78125 C 44.765625 -317.875 43.78125 -317.578125 43.734375 -317.984375 C 43.65625 -318.875 47.296875 -321.4375 47.859375 -320.875 C 48.0625 -320.6875 47.234375 -319.796875 46.09375 -318.78125 Z M 52.828125 -323.34375 C 52.828125 -323.34375 52.03125 -323.09375 51.34375 -322.828125 C 50.765625 -322.359375 50.140625 -322.515625 50.109375 -322.921875 C 50.0625 -323.515625 50.8125 -324.28125 51.71875 -324.5625 C 52.484375 -324.84375 53.09375 -324.890625 53.140625 -324.484375 C 53.203125 -323.78125 53.03125 -323.359375 52.828125 -323.34375 Z M 56.671875 -327.046875 C 54.5 -325.21875 53.90625 -324.96875 53.8125 -326.1875 C 53.765625 -326.59375 54.125 -327.234375 54.734375 -327.296875 C 55.328125 -327.34375 56.421875 -327.640625 57.21875 -327.90625 C 58.015625 -328.171875 57.625 -327.9375 56.671875 -327.046875 Z M 69.96875 -334.515625 C 68.828125 -333.5 67.1875 -332.75 66.765625 -332.90625 C 65.546875 -332.796875 69.890625 -335.53125 71.3125 -335.65625 C 71.875 -335.90625 71.34375 -335.25 69.96875 -334.515625 Z M 159.125 -159 C 159.578125 -160.96875 160.3125 -161.84375 160.34375 -161.4375 C 160.390625 -161.03125 159.734375 -159.0625 159.28125 -157.375 C 158.625 -155.5 158.109375 -154.53125 158.078125 -154.921875 C 158.03125 -155.4375 158.46875 -157.3125 159.125 -159 Z M 57.328125 -74.03125 C 67.6875 -96.625 81.328125 -116.546875 95.625 -129.703125 C 98.078125 -131.96875 101.015625 -134.546875 102 -134.84375 C 103.078125 -135.34375 105.21875 -136.546875 106.734375 -137.8125 C 108.359375 -138.984375 111.796875 -140.484375 114.546875 -141.546875 C 120.078125 -143.5625 132.1875 -144.828125 135.03125 -143.75 C 136.5 -143.265625 135.703125 -142.984375 131.734375 -143.046875 C 125.140625 -142.875 117.34375 -140.96875 115.921875 -138.828125 C 115.265625 -138.046875 114.09375 -137.328125 113.296875 -137.265625 C 111.890625 -137.140625 106.3125 -133.203125 97.984375 -125.9375 C 96.46875 -124.796875 95.90625 -126.578125 97.375 -128.4375 C 97.90625 -129.296875 97.703125 -129.28125 96.515625 -128.96875 C 95.53125 -128.484375 95 -127.515625 95.125 -126.09375 C 95.265625 -124.484375 93.953125 -122.234375 90.921875 -118.40625 C 88.75 -115.375 86.25 -112.59375 85.671875 -112.15625 C 84.34375 -111.015625 83.421875 -112.140625 84.734375 -113.484375 C 85.28125 -114.25 86.203125 -115.546875 86.71875 -116.421875 C 88.71875 -120.359375 84.921875 -116.0625 79.515625 -109.15625 C 67.953125 -93.5 59.625 -78.203125 51.828125 -57.875 C 49.25 -51.453125 47.25 -46.484375 47.046875 -46.46875 C 46.234375 -46.40625 53.671875 -65.984375 57.328125 -74.03125 Z M 94.875 -118.546875 C 94.90625 -118.140625 94.75 -117.71875 94.15625 -117.671875 C 93.34375 -117.59375 93.28125 -118.203125 94.046875 -118.890625 C 94.609375 -119.234375 94.8125 -119.25 94.875 -118.546875 Z M 83.390625 -110.109375 C 83.4375 -109.703125 83.015625 -108.765625 82.484375 -107.90625 C 81.9375 -107.25 81.34375 -106.984375 81.3125 -107.390625 C 81.265625 -107.796875 81.796875 -108.859375 82.359375 -109.40625 C 82.890625 -110.078125 83.375 -110.3125 83.390625 -110.109375 Z M 74.453125 -97.421875 C 74.484375 -97.015625 73.09375 -94.15625 71.1875 -91.53125 C 67.3125 -85.703125 68.0625 -87.703125 72.0625 -94.28125 C 73.296875 -96.515625 74.390625 -98.03125 74.453125 -97.421875 Z M 62.609375 -75.515625 C 62.28125 -74.46875 61.75 -73.59375 61.546875 -73.578125 C 61.359375 -73.5625 61.46875 -74.390625 61.796875 -75.4375 C 62.3125 -76.515625 62.65625 -77.265625 62.859375 -77.28125 C 63.0625 -77.296875 62.921875 -76.5625 62.609375 -75.515625 Z M 59.90625 -70.28125 C 59.578125 -69.4375 59 -68.984375 58.796875 -68.96875 C 58.59375 -68.9375 58.765625 -69.375 59.296875 -70.234375 C 59.640625 -71.078125 60.1875 -71.75 60.390625 -71.765625 C 60.703125 -71.78125 60.453125 -71.15625 59.90625 -70.28125 Z M 47.21875 -5.96875 C 46.28125 -16.5625 51.5 -40.75 59.21875 -61.875 C 61.796875 -68.625 63.65625 -75.1875 63.71875 -76.84375 C 63.578125 -78.359375 64.0625 -79.8125 64.78125 -79.875 C 65.359375 -80.125 66.0625 -81.421875 66.125 -82.953125 C 66.203125 -84.375 66.703125 -85.65625 67.109375 -85.6875 C 68.234375 -85.78125 67.734375 -83.296875 66.140625 -78.171875 C 64.90625 -73.875 65.203125 -72.796875 66.90625 -76.296875 C 69.765625 -82.25 78.015625 -95 84.546875 -103.921875 C 88.453125 -109.4375 91.34375 -113.65625 91.140625 -113.640625 C 90.75 -113.609375 90.875 -114.234375 91.40625 -115.1875 C 92.046875 -116.0625 92.8125 -116.546875 93.234375 -116.375 C 94.296875 -116.0625 98.140625 -119.75 97.453125 -120.5 C 97.21875 -120.890625 97.5625 -121.734375 98.28125 -122.609375 C 99.203125 -123.71875 99.203125 -123.71875 98.890625 -122.671875 C 98.5625 -121.8125 98.578125 -121.625 99.15625 -122.078125 C 99.53125 -122.3125 99.96875 -123.171875 99.90625 -123.78125 C 99.828125 -124.6875 101.375 -125.84375 103.328125 -126.609375 C 105.40625 -127.40625 106.96875 -128.15625 106.71875 -128.546875 C 106 -129.8125 108.03125 -131.1875 112.25 -133 C 114.375 -134.109375 117.828125 -135.421875 119.78125 -136.390625 C 121.828125 -137.390625 127.515625 -138.921875 132.40625 -140.0625 C 141.21875 -141.65625 141.515625 -141.6875 145.328125 -140.0625 C 149.453125 -138.1875 150.796875 -135.546875 148.65625 -133.328125 C 148.09375 -132.6875 147.3125 -130.0625 146.4375 -127.4375 C 145.828125 -124.953125 144.96875 -123.140625 144.546875 -123.3125 C 144.109375 -123.5625 143.5625 -122.8125 142.96875 -121.734375 C 142.53125 -119.671875 142.53125 -119.671875 143.5 -121.390625 C 144 -122.4375 144.578125 -122.90625 144.625 -122.296875 C 144.796875 -120.484375 133.390625 -96.25 131.59375 -94.703125 C 130.828125 -94.015625 130.28125 -93.15625 130.328125 -92.75 C 130.421875 -91.625 126.1875 -83.21875 122.0625 -75.515625 C 119.828125 -71.765625 116.5625 -66.078125 114.828125 -62.78125 C 113.171875 -59.484375 110.515625 -55.078125 108.75 -53.078125 C 107.3125 -50.921875 102.5 -44.1875 98.15625 -38.015625 C 86.171875 -20.46875 77.03125 -10.921875 66.34375 -3.765625 C 63.46875 -1.796875 60.0625 0.140625 58.875 0.453125 C 56.8125 1.234375 56.78125 1.046875 59.359375 -1.03125 C 62.890625 -3.65625 62.421875 -4.4375 58.84375 -2.203125 C 57.390625 -1.46875 55.015625 -0.640625 53.3125 -0.296875 C 47.5625 0.421875 47.8125 0.8125 47.21875 -5.96875 Z M 85.890625 -4.984375 C 84.96875 -3.875 83.71875 -2.953125 83.296875 -3.125 C 82.703125 -3.0625 83.0625 -3.71875 84.0625 -4.828125 C 84.984375 -6 86.125 -6.921875 86.53125 -6.96875 C 87.171875 -6.8125 86.625 -5.953125 85.890625 -4.984375 Z M 94.46875 -14.078125 C 90.71875 -9.171875 88.625 -7.34375 88.5 -8.765625 C 88.453125 -9.375 88.640625 -9.59375 89.046875 -9.640625 C 89.453125 -9.671875 91.296875 -11.953125 93.390625 -14.578125 C 95.40625 -17.109375 97.375 -19.109375 97.609375 -18.734375 C 97.84375 -18.546875 96.578125 -16.59375 94.46875 -14.078125 Z M 100.390625 -22.9375 C 99.890625 -21.671875 99.265625 -20.796875 99.078125 -20.578125 C 99.09375 -20.375 98.890625 -20.5625 98.859375 -20.96875 C 98.796875 -21.578125 99.296875 -22.640625 100.15625 -23.3125 C 101.265625 -24.734375 101.28125 -24.53125 100.390625 -22.9375 Z M 109.40625 -34.015625 C 102.78125 -25.890625 101.09375 -24.328125 105.484375 -31.125 C 109.015625 -36.21875 115.484375 -43.703125 115.5625 -42.890625 C 115.609375 -42.375 112.78125 -38.484375 109.40625 -34.015625 Z M 121.53125 -50.03125 C 121.1875 -49.203125 121.15625 -49.609375 120.90625 -50.390625 C 120.8125 -51.40625 120.9375 -52.125 121.1875 -51.640625 C 121.609375 -51.46875 121.6875 -50.65625 121.53125 -50.03125 Z M 127.25 -59.28125 C 126.40625 -58.390625 126.390625 -58.59375 126.6875 -59.84375 C 126.921875 -60.6875 127.296875 -61.21875 127.515625 -60.953125 C 127.734375 -60.765625 127.609375 -59.9375 127.25 -59.28125 Z M 131.15625 -69.40625 C 130.8125 -68.5625 130.671875 -67.9375 130.359375 -67.90625 C 130.359375 -67.90625 130.09375 -68.5 130.03125 -69.3125 C 129.984375 -69.921875 130.125 -70.640625 130.640625 -70.6875 C 131.046875 -70.71875 131.3125 -70.03125 131.15625 -69.40625 Z M 140.890625 -86.125 C 139.828125 -84.203125 139.625 -84.1875 139.5 -85.59375 C 139.546875 -87.4375 140.96875 -89.90625 141.75 -88.953125 C 142 -88.578125 141.40625 -87.203125 140.890625 -86.125 Z M 138.328125 -89.6875 C 137.71875 -87.484375 134.6875 -81.40625 131.578125 -76.15625 C 128.46875 -70.890625 124.859375 -64.28125 123.5 -61.515625 C 120.421875 -55.953125 119.515625 -54.640625 106.6875 -36.015625 C 97.84375 -23.109375 88.828125 -12.15625 85.296875 -9.515625 C 83.75 -8.359375 83.75 -8.359375 84.03125 -9.890625 C 84.515625 -11.359375 84.3125 -11.34375 82.921875 -9.796875 C 82.203125 -8.828125 81.703125 -7.5625 81.75 -6.953125 C 81.84375 -5.9375 70.515625 3.203125 69.46875 2.875 C 69.0625 2.90625 68.671875 3.15625 68.703125 3.5625 C 68.734375 3.96875 66.53125 5.265625 63.765625 6.328125 C 57.828125 8.265625 57.4375 8.515625 56.765625 7.75 C 56.109375 7.203125 53.953125 6.96875 51.921875 6.953125 C 51.3125 7 50.640625 6.359375 50.609375 5.953125 C 50.53125 5.15625 51.3125 4.671875 53.359375 4.90625 C 57.328125 4.96875 63.796875 1.9375 69.046875 -1.875 C 75.171875 -6.578125 85.65625 -17.078125 90.5 -23.203125 C 96.03125 -29.875 111.671875 -53.546875 117.859375 -64.28125 C 120.328125 -68.453125 122.90625 -73.0625 123.796875 -74.25 C 125.71875 -76.859375 128.484375 -82.296875 128.078125 -82.46875 C 127.875 -82.453125 128.546875 -83.84375 129.5625 -85.34375 C 130.640625 -86.875 131.65625 -89.296875 132.140625 -90.765625 C 132.625 -92.125 133.21875 -93.40625 133.625 -93.4375 C 134.21875 -93.5 135.078125 -95.390625 135.875 -98.015625 C 136.78125 -100.53125 138.109375 -103.8125 138.796875 -105.296875 C 142.640625 -111.328125 144.609375 -115.46875 145.25 -117.5625 C 145.796875 -120.765625 149.4375 -129.03125 149.90625 -128.453125 C 150.125 -128.171875 149.6875 -126.296875 149.03125 -124.40625 C 147.375 -118.96875 147.59375 -118.78125 150.125 -123.59375 C 153.359375 -129.578125 153.34375 -129.78125 151.71875 -132.078125 C 150.984375 -133.328125 150.390625 -134.5 150.5625 -134.921875 C 150.828125 -135.140625 151.515625 -134.40625 152.015625 -133.21875 C 153.078125 -130.578125 154.53125 -130.296875 154.953125 -132.359375 C 155.3125 -133.921875 156.703125 -134.453125 156.8125 -133.25 C 157.015625 -130.921875 145.65625 -103.65625 142 -97.734375 C 140.703125 -95.296875 138.953125 -91.765625 138.328125 -89.6875 Z M 144.84375 -93.203125 C 144.3125 -92.234375 144.109375 -92.21875 144.390625 -93.765625 C 144.71875 -94.625 144.890625 -95.046875 145.3125 -94.875 C 145.625 -94.703125 145.40625 -93.859375 144.84375 -93.203125 Z M 147.28125 -99.015625 C 146.5 -96.203125 146.140625 -95.765625 146.046875 -96.765625 C 146.015625 -97.15625 146.5 -98.546875 147.046875 -99.40625 C 147.921875 -101.125 148.125 -101.140625 147.28125 -99.015625 Z M 153.0625 -112.046875 C 152.3125 -110.234375 151.96875 -109.609375 152.078125 -110.625 C 152.390625 -111.78125 152.734375 -113.4375 152.84375 -114.46875 C 152.875 -116.40625 154.21875 -117.546875 154.359375 -115.921875 C 154.375 -115.71875 153.9375 -113.75 153.0625 -112.046875 Z M 156.234375 -119.953125 C 154.59375 -117.78125 154.234375 -119.578125 155.640625 -122.25 C 156.78125 -124.171875 157.578125 -124.453125 157.71875 -122.828125 C 157.765625 -122.234375 157.0625 -120.9375 156.234375 -119.953125 Z M 157.453125 -125.765625 C 156.4375 -125.671875 156.390625 -126.28125 157.34375 -127.171875 C 157.515625 -127.390625 157.921875 -127.421875 157.984375 -126.828125 C 158.015625 -126.421875 157.65625 -125.78125 157.453125 -125.765625 Z M 160.21875 -132.8125 C 159.4375 -131.125 158.765625 -129.640625 158.5625 -129.625 C 158.15625 -129.578125 158.4375 -131.046875 159.25 -133.140625 C 160.015625 -135.140625 160.6875 -136.625 160.921875 -136.234375 C 161.34375 -136.0625 160.859375 -134.609375 160.21875 -132.8125 Z M 163.328125 -142.5625 C 162.53125 -140.953125 162.046875 -139.6875 161.84375 -139.671875 C 161.640625 -139.65625 161.9375 -140.90625 162.40625 -142.484375 C 163 -143.953125 163.5 -145.21875 163.90625 -145.25 C 164.109375 -145.265625 163.8125 -144.03125 163.328125 -142.5625 Z M 160.46875 -143.734375 C 160.21875 -141.984375 159.890625 -140.9375 159.5 -140.890625 C 159.078125 -141.0625 158.65625 -140 158.765625 -138.8125 C 158.875 -137.484375 158.40625 -136.015625 158.03125 -135.578125 C 157.65625 -135.125 157.453125 -135.109375 157.625 -135.53125 C 157.8125 -135.75 157.3125 -136.734375 156.625 -137.609375 C 155.484375 -138.921875 155.453125 -139.3125 156.6875 -141.671875 C 157.359375 -143.28125 158.015625 -144.9375 157.96875 -145.546875 C 157.90625 -146.15625 158.109375 -146.171875 158.640625 -146.015625 C 159.078125 -145.84375 159.421875 -146.296875 159.3125 -147.609375 C 159.140625 -149.625 161.1875 -156.3125 162.734375 -158.703125 C 163.25 -159.5625 163.71875 -161.328125 163.8125 -162.5625 C 163.703125 -163.78125 164.140625 -165.734375 164.859375 -166.828125 C 166.125 -169.875 166.265625 -168.375 164.984375 -165.40625 C 164.296875 -164.03125 164.171875 -163.203125 164.578125 -163.234375 C 165.171875 -163.296875 165.859375 -163.5625 166.015625 -164.1875 C 166.171875 -164.6875 166.765625 -164.9375 166.984375 -164.765625 C 168.0625 -164.15625 166.9375 -160.578125 163.65625 -152.765625 C 162.015625 -149.265625 160.546875 -145.15625 160.46875 -143.734375 Z M 171.203125 -164.234375 C 168.546875 -156.359375 167.171875 -153.28125 167.046875 -154.703125 C 166.9375 -156.015625 171.09375 -167.78125 172.5 -170.234375 C 173.203125 -171.515625 172.640625 -168.734375 171.203125 -164.234375 Z M 169.1875 -173.203125 C 169.4375 -172.828125 169.046875 -171.359375 168.578125 -169.6875 C 168.125 -167.921875 167.609375 -167.0625 167.546875 -167.671875 C 167.421875 -169.171875 168.4375 -173.640625 169.1875 -173.203125 Z M 173.40625 -193.828125 C 172.859375 -192.96875 172.46875 -190.390625 172.234375 -188.53125 C 172 -185.15625 169.96875 -178.359375 169.03125 -177.359375 C 168.546875 -176.921875 168.390625 -176.5 168.640625 -175.90625 C 169.1875 -175.546875 169.03125 -175.125 168.515625 -175.078125 C 168.109375 -175.046875 167.59375 -173.96875 167.125 -172.625 C 167.046875 -171.1875 166.6875 -170.546875 166.453125 -170.9375 C 166.3125 -172.5625 174.390625 -203.484375 174.84375 -202.921875 C 175.578125 -202.578125 174.203125 -196.25 173.40625 -193.828125 Z M 143.9375 -110.625 C 142.03125 -106.703125 140.71875 -103.234375 141.125 -103.0625 C 141.34375 -102.875 141.578125 -102.484375 141.234375 -101.84375 C 141.109375 -101.109375 141.296875 -101.125 141.65625 -101.671875 C 142.25 -101.921875 142.359375 -102.96875 142.265625 -103.984375 C 142.171875 -104.984375 142.53125 -105.625 142.734375 -105.640625 C 143.34375 -105.6875 147.421875 -116.125 147.3125 -117.34375 C 147.28125 -117.734375 145.703125 -114.65625 143.9375 -110.625 Z M 140.671875 -115.125 C 141.71875 -117.25 142.359375 -119.25 142.15625 -119.21875 C 141.953125 -119.203125 140.90625 -117.171875 139.875 -115.0625 C 138.765625 -112.625 138.125 -110.734375 138.125 -110.734375 C 138.328125 -110.75 139.671875 -112.703125 140.671875 -115.125 Z M 140.671875 -115.125 "/></g></g></g><g fill="#e4e2dd" fill-opacity="1"><g transform="translate(289.334981, 336.54152)"><g><path d="M -5.453125 -62.234375 C -3.703125 -42.234375 -2.125 -31.25 1.375 -20.1875 C 2.59375 -15.703125 3.8125 -11.125 3.90625 -10.125 C 3.984375 -9.109375 4.765625 -7.328125 5.5 -5.875 C 7.03125 -3.359375 7.03125 -3.359375 5.96875 -0.515625 C 4.921875 1.609375 4.359375 2.15625 2.53125 2.3125 C 0.421875 2.5 0.234375 2.71875 0.546875 3.921875 C 1 4.5 1.53125 5.875 1.609375 6.765625 C 2.125 7.953125 8.59375 14.515625 9.234375 14.859375 C 11.59375 16.078125 13.65625 15.296875 19.046875 10.640625 C 21.953125 7.859375 31.6875 0.375 33.484375 -1.296875 C 36.4375 -4.625 48.6875 -12.609375 59.296875 -17.90625 C 73.265625 -24.734375 89.84375 -28.53125 106.9375 -28.484375 C 118.828125 -28.53125 119.234375 -28.5625 119.84375 -26.359375 C 120.375 -24.890625 121.015625 -24.546875 124 -24.1875 L 127.421875 -23.671875 L 126.828125 -25.859375 C 126.515625 -27.15625 126.1875 -28.546875 126.171875 -28.75 C 126.109375 -29.359375 119.984375 -34.015625 116 -36.625 C 114.921875 -37.125 113.46875 -37.609375 112.65625 -37.546875 C 111.75 -37.46875 110.265625 -38.0625 109.21875 -38.578125 C 105.5 -40.078125 80.390625 -38.6875 71.625 -36.515625 C 64.765625 -34.6875 60.515625 -33.1875 57.0625 -31.859375 C 55.203125 -31.09375 51.578125 -29.5625 48.8125 -28.5 C 42.34375 -25.59375 35.671875 -21.640625 27.4375 -15.734375 C 22.4375 -12.15625 20.5 -11.15625 20.046875 -11.734375 C 18.859375 -13.765625 15.40625 -26.390625 14.03125 -35.03125 C 11.03125 -52.875 7.828125 -98.921875 8.625 -112.9375 C 8.625 -115.375 8.984375 -121.921875 9.15625 -126.921875 C 9.1875 -135.6875 10.203125 -152.0625 11.515625 -168.453125 C 12.265625 -178.5 13.90625 -189.015625 18.578125 -221.59375 C 21.21875 -239.140625 24.796875 -255.234375 27.796875 -261.609375 C 31.703125 -269.375 33.96875 -276.09375 33.84375 -277.5 C 33.765625 -278.3125 34.046875 -279.859375 34.640625 -281.125 C 36.4375 -286.078125 38.796875 -295.046875 41.171875 -306.34375 C 42.453125 -312.671875 44.046875 -318.90625 44.59375 -319.78125 C 46.015625 -321.953125 46.015625 -321.953125 43.53125 -324.875 C 41.859375 -326.5625 40.796875 -326.875 39.625 -326.359375 C 38.546875 -326.078125 37.71875 -326.1875 36.8125 -327.234375 C 36.109375 -328.203125 34.640625 -328.6875 33.53125 -328.578125 C 31.5 -328.40625 30.40625 -327.078125 31.875 -326.59375 C 32.296875 -326.328125 32.3125 -326.125 31.703125 -326.078125 C 31.09375 -326.03125 29.890625 -324.90625 29.375 -323.84375 C 28.671875 -322.546875 27.890625 -322.078125 26.671875 -322.171875 C 25.515625 -322.484375 25.140625 -322.25 25.21875 -321.34375 C 25.265625 -320.75 25 -319.078125 24.5 -317.8125 C 21.828125 -310.046875 19.890625 -301.953125 20.0625 -299.921875 C 20.453125 -297.828125 18.125 -288.25 14.328125 -274.765625 C 13.5625 -271.96875 12.5625 -268.109375 12.3125 -266.453125 C 11.59375 -263.03125 2.578125 -220.609375 1.546875 -213.8125 C 0.75 -209.96875 0.078125 -206.15625 0.171875 -205.140625 C 0.046875 -204.109375 -0.453125 -200.5 -0.765625 -197.125 C -1.3125 -194.015625 -2.3125 -185.796875 -3.375 -179.15625 C -5.125 -165.484375 -7.09375 -135.6875 -6.625 -128.09375 C -6.375 -125.140625 -6.578125 -122.796875 -6.78125 -122.78125 C -7.1875 -122.75 -7.3125 -121.921875 -7.21875 -120.703125 C -6.90625 -119.515625 -7.046875 -116.5625 -7.25 -114.1875 C -7.828125 -108.140625 -7.296875 -97.390625 -6.421875 -96.75 C -6.125 -96.578125 -6.078125 -95.984375 -6.265625 -94.9375 C -7.265625 -92.3125 -6.9375 -79.203125 -5.453125 -62.234375 Z M 72.546875 -33.015625 C 72.703125 -33.421875 73.40625 -33.5 73.84375 -33.328125 C 74.484375 -32.984375 74.296875 -32.765625 73.484375 -32.703125 C 72.78125 -32.625 72.359375 -32.796875 72.546875 -33.015625 Z M 67.84375 -32.015625 C 68.03125 -32.21875 68.640625 -32.265625 69.15625 -32.125 C 69.78125 -31.984375 69.59375 -31.75 68.6875 -31.671875 C 68.09375 -31.421875 67.671875 -31.59375 67.84375 -32.015625 Z M 64.390625 -30.890625 C 64.875 -31.140625 65.25 -31.171875 65.890625 -31.015625 C 66.515625 -30.875 66.328125 -30.65625 65.515625 -30.578125 C 64.734375 -30.515625 64.40625 -30.6875 64.390625 -30.890625 Z M 11.40625 -31.453125 L 11.40625 -29.09375 L 10.609375 -31.171875 C 9.734375 -34.046875 9.828125 -35.484375 10.71875 -34.53125 C 11.15625 -34.171875 11.5 -32.65625 11.40625 -31.453125 Z M 5.984375 -76.875 C 6.140625 -75.15625 5.828125 -76.359375 5.546875 -79.6875 C 5.265625 -82.828125 5.359375 -84.046875 5.484375 -82.640625 C 5.828125 -81.03125 6.078125 -78.3125 5.984375 -76.875 Z M 8.953125 -43.140625 C 8.8125 -42.3125 8.765625 -42.921875 8.625 -44.53125 C 8.484375 -46.15625 8.390625 -47.0625 8.6875 -46.171875 C 8.9375 -45.578125 9.0625 -44.15625 8.953125 -43.140625 Z M 2.640625 -110.46875 C 2.609375 -110.875 2.765625 -111.40625 2.765625 -111.40625 C 2.96875 -111.421875 3.421875 -110.953125 3.65625 -110.5625 C 3.890625 -110.171875 3.734375 -109.75 3.328125 -109.71875 C 2.921875 -109.6875 2.671875 -110.0625 2.640625 -110.46875 Z M 5.359375 -100.546875 C 5.546875 -98.3125 5.71875 -93.953125 5.578125 -90.984375 L 5.65625 -85.390625 L 5.09375 -91.765625 C 4.8125 -95.09375 4.625 -99.453125 4.671875 -101.28125 L 4.96875 -104.890625 Z M 10.125 -36.71875 C 10.1875 -35.90625 9.9375 -36.5 9.796875 -38.015625 C 9.671875 -39.4375 9.828125 -40.046875 9.875 -39.453125 C 10.15625 -38.65625 10.265625 -37.34375 10.125 -36.71875 Z M 5.421875 -106.546875 C 5.3125 -105.515625 5.21875 -106.53125 5.03125 -108.65625 C 4.84375 -110.875 4.78125 -111.578125 5.078125 -110.484375 C 5.390625 -109.296875 5.53125 -107.671875 5.421875 -106.546875 Z M 15.640625 -9.71875 C 15.671875 -9.3125 15.296875 -8.859375 15.09375 -8.84375 C 14.703125 -8.8125 14.453125 -9.40625 14.390625 -10.015625 C 14.34375 -10.625 14.53125 -10.84375 14.921875 -10.875 C 15.140625 -10.6875 15.59375 -10.125 15.640625 -9.71875 Z M 5.03125 -123.8125 C 4.90625 -125.34375 5.046875 -125.9375 5.109375 -125.359375 C 5.375 -124.578125 5.484375 -123.25 5.359375 -122.40625 C 5.40625 -121.796875 5.15625 -122.390625 5.03125 -123.8125 Z M 2.90625 -145.828125 C 2.390625 -141.296875 2.3125 -137.640625 2.6875 -135.53125 C 3.09375 -133.125 3.15625 -132.40625 2.546875 -132.5625 C 1.875 -133.21875 1.890625 -133.015625 2.59375 -132.15625 C 4.015625 -130.84375 4.078125 -127.90625 2.828125 -126.984375 C 2.265625 -126.515625 2.015625 -124.6875 2.03125 -122.125 C 1.953125 -118.34375 1.96875 -118.140625 2.390625 -120.328125 C 2.9375 -123.421875 3.53125 -123.6875 3.578125 -120.84375 C 3.671875 -119.84375 3.8125 -118.109375 4.09375 -117.328125 C 4.203125 -116.109375 4.359375 -116.328125 4.625 -117.96875 C 4.953125 -120.15625 5.171875 -119.96875 5.453125 -116.625 C 5.71875 -113.6875 5.578125 -113.078125 4.96875 -114.03125 C 4.484375 -115.015625 4.28125 -115.203125 4.328125 -114.59375 C 4.40625 -113.78125 4.203125 -113.765625 3.109375 -114.484375 C 2.015625 -115.203125 2.015625 -115.203125 2.5 -114.4375 C 2.984375 -113.65625 2.828125 -113.046875 2.25 -112.578125 C 0.84375 -111.234375 0.984375 -107.28125 2.453125 -79 C 3.625 -58.65625 3.921875 -55.21875 4.796875 -54.578125 C 5.640625 -54.046875 5.640625 -54.046875 4.84375 -53.96875 C 4.234375 -53.921875 4.15625 -52.484375 4.765625 -47.953125 C 5.25 -44.640625 6.234375 -38.109375 6.84375 -33.578125 C 7.78125 -27.546875 8.46875 -24.046875 9.5625 -22.109375 C 10.515625 -20.5625 11.0625 -18.890625 10.90625 -18.46875 C 10.734375 -18.03125 10.953125 -17.859375 11.328125 -18.296875 C 11.71875 -18.53125 11.921875 -18.546875 11.953125 -18.140625 C 12 -17.53125 11.8125 -17.3125 11.609375 -17.296875 C 10.59375 -17.203125 11.21875 -12.46875 12.46875 -9.84375 C 14.25 -5.828125 12.546875 -6.703125 10.5625 -10.703125 C 9.234375 -13.125 8.609375 -15.703125 8.078125 -19.421875 C 7.8125 -22.359375 7.65625 -24.171875 7.5 -23.75 C 6.640625 -19.5 3.65625 -31.375 3.65625 -39.515625 C 3.640625 -44.296875 3.5625 -45.3125 2.78125 -44.828125 C 2.3125 -44.390625 2.125 -44.359375 2.453125 -45.21875 C 3.21875 -46.8125 2.890625 -52.984375 2.078125 -52.90625 C 1.78125 -52.890625 1.546875 -53.28125 1.703125 -53.703125 C 1.96875 -54.125 1.890625 -55.03125 1.1875 -55.171875 C 0.515625 -55.71875 0.296875 -55.90625 1.109375 -55.96875 C 1.5 -56.015625 1.75 -56.640625 1.671875 -57.453125 C 1.609375 -58.265625 1.234375 -59.15625 0.84375 -59.109375 C 0.640625 -59.09375 0.1875 -59.46875 0.125 -60.265625 C 0.078125 -60.875 0.25 -61.09375 0.6875 -60.921875 C 0.890625 -60.75 0.90625 -62.796875 0.65625 -65.71875 C 0.140625 -69.234375 0.1875 -71.078125 0.65625 -71.515625 C 1.40625 -72.296875 1.390625 -72.5 0.546875 -72.625 C 0.03125 -72.796875 -0.40625 -73.34375 -0.4375 -73.75 C -0.484375 -74.15625 -0.09375 -74.203125 0.234375 -74.015625 C 0.859375 -73.875 0.921875 -75.515625 0.625 -78.84375 C 0.359375 -81.78125 0.25 -85.53125 0.28125 -87.375 C 0.421875 -90.53125 0.421875 -90.53125 -0.609375 -88.328125 C -1.1875 -86.84375 -1.390625 -86.828125 -1.65625 -87.609375 C -1.71875 -88.40625 -1.140625 -89.578125 -0.78125 -90.234375 C -0.21875 -90.890625 0.09375 -91.9375 0.03125 -92.53125 C -0.015625 -93.140625 -0.015625 -93.140625 -0.546875 -92.296875 C -1.21875 -90.59375 -1.859375 -92.1875 -1.796875 -97.15625 C -1.59375 -101.765625 -1.125 -101.1875 -0.9375 -96.625 C -0.828125 -95.421875 -0.546875 -94.625 -0.1875 -95.0625 C 0.578125 -95.75 -0.21875 -102.59375 -1.34375 -103.71875 C -2.25 -104.640625 -2.1875 -108.640625 -1.125 -108.109375 C -0.890625 -107.9375 -0.421875 -107.15625 -0.328125 -106.046875 C -0.0625 -103.015625 0.421875 -109.25 0.265625 -115.5625 L 0.140625 -121.546875 L -0.3125 -117.53125 C -0.859375 -114.546875 -1.015625 -113.921875 -1.515625 -114.90625 C -2.28125 -116.765625 -2.03125 -123.203125 -1.21875 -123.265625 C -0.8125 -123.296875 -0.6875 -124.25 -0.984375 -125.21875 C -1.265625 -126.203125 -1.140625 -127.03125 -0.734375 -126.875 C -0.515625 -126.6875 -0.328125 -126.90625 -0.390625 -127.71875 C -0.453125 -128.4375 -0.703125 -128.828125 -1.046875 -128.390625 C -1.4375 -128.140625 -1.671875 -128.53125 -1.734375 -129.140625 C -1.796875 -129.9375 -1.640625 -130.34375 -0.796875 -130.03125 C 0.140625 -129.703125 0.3125 -130.125 -0.015625 -131.515625 C -0.3125 -132.625 -0.40625 -133.625 0 -133.65625 C 0.78125 -134.140625 1.5625 -146.109375 0.984375 -148.109375 C 0.71875 -148.890625 0.609375 -150 0.984375 -150.4375 C 1.359375 -150.671875 1.625 -152.328125 1.46875 -154.15625 L 1.1875 -157.28125 L 0.421875 -154.5625 C -0.046875 -152.796875 -0.21875 -152.578125 -0.109375 -153.609375 C -0.21875 -154.90625 -0.15625 -156.546875 -0.265625 -157.765625 C -0.390625 -159.0625 -0.0625 -160.125 0.53125 -160.171875 C 2.046875 -160.296875 2.859375 -162.625 2.75 -168.5 C 2.71875 -171.34375 2.671875 -174.109375 3.078125 -174.140625 C 3.25 -174.359375 3.53125 -175.796875 3.40625 -177.328125 C 3.5 -178.546875 4.25 -183 4.90625 -187.03125 C 5.703125 -191.875 5.875 -194.4375 5.421875 -195.015625 C 4.3125 -196.125 4.453125 -196.765625 5.828125 -197.28125 C 6.921875 -197.796875 6.921875 -197.796875 5.796875 -197.6875 C 5.203125 -197.640625 4.53125 -198.296875 4.453125 -199.109375 C 4.375 -200.109375 4.546875 -200.328125 5.046875 -199.359375 C 5.734375 -198.390625 6.8125 -198.90625 6.921875 -200.125 C 6.78125 -201.75 7.578125 -206.609375 8.265625 -210.21875 C 9.546875 -215.328125 9.515625 -215.734375 8.09375 -214.375 C 6.84375 -212.640625 6.75 -216 8.28125 -223.96875 C 9.640625 -230.796875 10.9375 -234.28125 11.171875 -231.546875 C 11.3125 -229.9375 9.375 -219.6875 8.5625 -218.390625 C 8.390625 -217.96875 8.265625 -217.140625 8.484375 -216.953125 C 8.703125 -216.765625 8.890625 -216.984375 8.859375 -217.390625 C 8.796875 -218 9.296875 -218.25 9.515625 -218.0625 C 9.9375 -217.890625 10.328125 -218.140625 10.46875 -218.96875 C 10.609375 -219.59375 10.984375 -220.03125 11.203125 -219.84375 C 11.421875 -219.65625 10.796875 -215.234375 10 -210.171875 C 9.125 -204.90625 8.4375 -199.046875 8.59375 -197.328125 C 8.5625 -195.296875 8.328125 -193.328125 7.953125 -192.890625 C 6.921875 -191.796875 4.15625 -168.625 4.34375 -164.265625 C 4.546875 -161.953125 4.421875 -160.921875 4 -161.296875 C 3.75 -161.890625 3.609375 -161.046875 3.953125 -159.453125 C 4.3125 -157.765625 4.21875 -156.53125 4.015625 -156.5 C 3.609375 -156.46875 3.46875 -155.640625 3.5625 -154.625 C 3.65625 -153.53125 3.390625 -149.546875 2.90625 -145.828125 Z M 3.96875 -125.453125 C 4.015625 -125.0625 3.859375 -124.4375 3.484375 -124.203125 C 3.109375 -123.859375 2.671875 -124.125 2.609375 -124.9375 C 2.546875 -125.53125 2.921875 -125.96875 3.328125 -126 C 3.71875 -126.03125 3.9375 -125.84375 3.96875 -125.453125 Z M 6.28125 -66.609375 C 6.703125 -64 7.078125 -59.859375 7.09375 -57.3125 C 7.078125 -55.078125 6.90625 -57.09375 6.453125 -62.25 C 6.015625 -67.203125 5.828125 -69.3125 6.28125 -66.609375 Z M 2.484375 -105.265625 C 2.34375 -106.78125 2.5 -107.40625 2.75 -106.8125 C 3 -106.328125 3.09375 -105.3125 2.953125 -104.5 C 2.828125 -103.671875 2.578125 -104.265625 2.484375 -105.265625 Z M 3.3125 -83.0625 C 3.140625 -82.640625 3.109375 -83.046875 3.015625 -84.046875 C 2.921875 -85.15625 2.890625 -85.5625 3.125 -85.171875 C 3.390625 -84.484375 3.453125 -83.6875 3.3125 -83.0625 Z M 3.1875 -40.28125 C 2.9375 -39.65625 2.71875 -39.84375 2.625 -40.859375 C 2.359375 -41.734375 2.515625 -42.171875 2.734375 -41.984375 C 3.0625 -41.59375 3.125 -40.890625 3.1875 -40.28125 Z M -1.09375 -83.296875 C -1.1875 -84.484375 -1.046875 -85.21875 -0.71875 -84.828125 C -0.65625 -84.125 -0.5625 -83.125 -0.5 -82.3125 C -0.75 -81.6875 -0.984375 -82.078125 -1.09375 -83.296875 Z M -1.3125 -112.6875 C -1.078125 -112.296875 -0.96875 -111.078125 -0.90625 -110.375 C -1.046875 -109.546875 -1.28125 -109.921875 -1.390625 -111.234375 C -1.5 -112.453125 -1.5625 -113.25 -1.3125 -112.6875 Z M -1.65625 -142.0625 C -1.671875 -142.265625 -1.1875 -142.515625 -0.5625 -142.359375 C 0.0625 -142.21875 0.515625 -141.859375 0.53125 -141.65625 C 0.53125 -141.65625 0.140625 -141.421875 -0.46875 -141.359375 C -1.078125 -141.3125 -1.59375 -141.46875 -1.65625 -142.0625 Z M 0.8125 -165.1875 C 0.703125 -166.40625 0.65625 -167 0.90625 -166.421875 C 1.125 -166.03125 1.21875 -165.015625 1.109375 -164.1875 C 1.171875 -163.375 0.921875 -163.96875 0.8125 -165.1875 Z M 1.421875 -172.15625 C 1.703125 -173.609375 1.703125 -173.609375 2.046875 -172.015625 C 2.125 -171.09375 1.796875 -170.0625 1.625 -169.84375 C 0.859375 -169.15625 0.78125 -169.96875 1.421875 -172.15625 Z M 4.171875 -190.734375 C 4.40625 -190.34375 4.265625 -189.515625 3.765625 -188.546875 C 2.90625 -187.671875 2.703125 -187.640625 2.65625 -188.234375 C 2.484375 -190.171875 3.484375 -191.6875 4.171875 -190.734375 Z M 3.53125 -193.515625 C 3.359375 -195.453125 4.75 -195.765625 5.515625 -194 C 5.578125 -193.296875 5.59375 -193.09375 5.171875 -193.265625 C 4.734375 -193.625 4.140625 -193.359375 3.984375 -192.75 C 3.84375 -192.328125 3.8125 -192.53125 3.53125 -193.515625 Z M 5.125 -205.359375 C 5.453125 -206.21875 5.65625 -206.234375 6.28125 -205.0625 C 6.578125 -204.078125 6.203125 -203.640625 5.6875 -203.59375 C 4.6875 -203.5 4.453125 -203.890625 5.125 -205.359375 Z M 6.4375 -210.265625 C 7 -213.265625 7.421875 -213.09375 7.0625 -210.125 C 6.96875 -208.875 6.640625 -208.046875 6.4375 -208.03125 C 6.03125 -208 6.140625 -209.015625 6.4375 -210.265625 Z M 5.546875 -134.34375 C 5.625 -130.984375 5.484375 -128.03125 5.5 -127.828125 C 4.9375 -127.15625 4.71875 -134.484375 5.0625 -137.46875 C 5.28125 -139.71875 5.34375 -138.90625 5.546875 -134.34375 Z M 4.734375 -141.296875 C 4.34375 -141.078125 4.140625 -141.0625 4.078125 -141.765625 C 4.0625 -141.96875 4.203125 -142.578125 4.59375 -142.8125 C 4.96875 -143.25 5.1875 -143.0625 5.21875 -142.65625 C 5.265625 -142.265625 5.125 -141.53125 4.734375 -141.296875 Z M 5.0625 -144.484375 C 4.828125 -144.875 4.84375 -147 5.078125 -149.078125 C 5.28125 -151.21875 5.578125 -152.46875 5.65625 -151.65625 C 5.890625 -148.9375 5.546875 -143.71875 5.0625 -144.484375 Z M 6.15625 -154.15625 C 5.890625 -153.53125 5.671875 -153.703125 5.609375 -154.515625 C 5.53125 -155.40625 5.6875 -155.84375 6.015625 -155.65625 C 6.25 -155.46875 6.296875 -154.859375 6.15625 -154.15625 Z M 6.046875 -157.703125 C 5.546875 -157.46875 5.328125 -157.640625 5.296875 -158.046875 C 5.265625 -158.453125 5.421875 -158.875 5.9375 -158.90625 C 6.34375 -158.953125 6.5625 -158.78125 6.59375 -158.578125 C 6.609375 -158.375 6.421875 -158.15625 6.046875 -157.703125 Z M 7.078125 -166.765625 C 6.9375 -166.125 6.6875 -166.515625 6.609375 -167.515625 C 6.515625 -168.625 6.671875 -169.046875 6.921875 -168.671875 C 7.171875 -168.078125 7.25 -167.171875 7.078125 -166.765625 Z M 7.359375 -170.546875 C 7.21875 -169.921875 6.953125 -170.515625 6.875 -171.515625 C 6.78125 -172.625 6.9375 -173.046875 7.203125 -172.46875 C 7.4375 -171.96875 7.53125 -170.96875 7.359375 -170.546875 Z M 7.765625 -175.15625 C 7.34375 -173.078125 7.171875 -175.109375 7.546875 -177.6875 C 8.015625 -179.359375 8.015625 -179.359375 8.125 -178.140625 C 8.1875 -177.34375 8.09375 -176 7.765625 -175.15625 Z M 8.578125 -183.578125 C 8.1875 -183.34375 7.96875 -183.53125 7.921875 -183.921875 C 7.890625 -184.328125 8.0625 -184.75 8.421875 -185.1875 C 8.8125 -185.53125 9.015625 -185.546875 9.078125 -184.828125 C 9.109375 -184.421875 8.9375 -184 8.578125 -183.578125 Z M 9.625 -189.984375 C 9.328125 -186.609375 9.359375 -186.203125 8.6875 -186.953125 C 8.453125 -187.34375 8.734375 -188.765625 9 -190.34375 L 9.765625 -193.046875 Z M 10.25 -194.421875 C 9.90625 -193.671875 9.71875 -193.65625 9.40625 -194.953125 C 9.109375 -195.953125 9.078125 -196.34375 9.5 -196.171875 C 9.703125 -196 10.078125 -196.4375 10.203125 -197.265625 C 10.328125 -198.296875 10.53125 -198.3125 10.625 -197.09375 C 10.703125 -196.28125 10.609375 -195.0625 10.25 -194.421875 Z M 12.53125 -209.171875 C 11.546875 -204.3125 10.46875 -201.25 10.34375 -202.671875 C 10.09375 -203.15625 10.6875 -204.625 10.984375 -206.078125 C 11.25 -207.640625 11.515625 -209.28125 11.28125 -209.671875 C 11.015625 -210.265625 11.1875 -210.6875 11.59375 -210.71875 C 12 -210.75 12.171875 -211.171875 11.9375 -211.5625 C 11.6875 -212.046875 11.671875 -212.25 12.078125 -212.28125 C 12.46875 -212.328125 12.609375 -212.9375 12.359375 -213.53125 C 12.09375 -214.125 12.25 -214.75 12.640625 -214.78125 C 13.453125 -214.84375 13.484375 -214.4375 12.53125 -209.171875 Z M 13.890625 -218.03125 C 13.4375 -217.390625 13.03125 -217.34375 12.8125 -217.53125 C 12.5625 -217.921875 12.5 -218.734375 12.859375 -219.375 C 13.015625 -219.796875 13.515625 -220.046875 13.953125 -219.6875 C 14.203125 -219.296875 14.046875 -218.671875 13.890625 -218.03125 Z M 16.390625 -229.0625 C 16.03125 -226.15625 14.75 -222.28125 14.640625 -223.5 C 14.59375 -224.109375 15.03125 -226.078125 15.6875 -227.765625 C 16.125 -229.75 16.484375 -230.1875 16.390625 -229.0625 Z M 20.9375 -249.3125 C 20.8125 -248.484375 20.75 -246.734375 20.84375 -245.734375 C 20.9375 -244.71875 20.765625 -244.296875 20.5 -244.890625 C 20.234375 -245.6875 20.03125 -245.671875 19.390625 -244.796875 C 18.59375 -242.359375 18.9375 -245.375 20.21875 -248.21875 C 20.71875 -249.5 21.078125 -250.140625 20.9375 -249.3125 Z M -4.03125 -72.625 C -4.734375 -82.96875 -5.21875 -93.1875 -5.171875 -95.046875 C -5.328125 -96.859375 -5.265625 -103.171875 -5.328125 -108.546875 C -5.40625 -114.140625 -5.5 -119.84375 -5.203125 -121.078125 C -4.90625 -122.328125 -4.796875 -125.703125 -4.859375 -128.671875 C -5.015625 -136.265625 -4.140625 -154.359375 -3.46875 -162.765625 C -0.890625 -189.0625 4.71875 -222.84375 11.765625 -254.09375 C 13.6875 -262.21875 16.453125 -271.40625 16.578125 -270 C 16.59375 -269.796875 16.5 -268.453125 16 -267.1875 C 15.703125 -266.15625 14.65625 -261.6875 13.6875 -257.640625 C 12.828125 -253.390625 11.8125 -248.921875 11.515625 -247.671875 C 9.265625 -239.734375 8.65625 -237.328125 8.71875 -236.53125 C 8.8125 -235.515625 7.46875 -228.484375 4.453125 -213.03125 C 3.203125 -206.421875 2.296875 -200.53125 2.359375 -199.921875 C 2.421875 -199.125 1.953125 -196.125 1.59375 -193.34375 C 0.375 -186.4375 -1.46875 -171.5 -1.265625 -169.171875 C -1.390625 -168.140625 -1.46875 -166.8125 -1.828125 -166.1875 C -2.171875 -165.53125 -2.125 -164.921875 -1.90625 -164.75 C -1.6875 -164.5625 -1.921875 -162.59375 -2.171875 -160.75 C -2.59375 -158.671875 -3 -155.078125 -3 -152.75 C -2.984375 -150.5 -2.96875 -147.953125 -3.125 -147.328125 C -3.265625 -146.703125 -3.46875 -144.359375 -3.3125 -142.53125 C -3.34375 -140.59375 -3.46875 -134.984375 -3.671875 -130.171875 C -3.84375 -125.171875 -4 -118.859375 -3.765625 -116.234375 C -3.71875 -113.28125 -3.578125 -109.515625 -3.8125 -107.671875 C -3.84375 -105.53125 -3.734375 -102.078125 -3.703125 -99.34375 C -3.6875 -96.796875 -3.546875 -90.59375 -3.3125 -85.421875 C -3.3125 -76.0625 -0.90625 -46.25 -0.171875 -42.546875 C 0.125 -41.546875 1.0625 -37.859375 1.59375 -34.140625 C 2.515625 -30.671875 3.828125 -24.96875 5.046875 -21.296875 C 7.09375 -14.359375 7.03125 -12.71875 5.203125 -17.140625 C 1.0625 -26.171875 -2.5 -47.3125 -4.03125 -72.625 Z M -4.03125 -72.625 "/></g></g></g><g fill="#e4e2dd" fill-opacity="1"><g transform="translate(374.391812, 329.095538)"><g><path d="M -11.609375 -119.921875 C -11.71875 -118.703125 -11.34375 -114.546875 -11.203125 -110.59375 C -10.484375 -99.953125 -8.703125 -95.9375 -3.421875 -92.640625 C -2.125 -91.75 -0.78125 -91.453125 -0.578125 -91.46875 C -0.1875 -91.71875 0.21875 -91.75 0.640625 -91.578125 C 1.484375 -91.25 1.46875 -91.453125 2.921875 -92.1875 C 4.078125 -92.890625 4.046875 -93.296875 2.9375 -94.3125 C 1.96875 -95.046875 1.703125 -95.84375 0.78125 -101.765625 C 0.046875 -105.46875 -0.5 -109.375 -0.390625 -110.421875 C -0.28125 -111.546875 -0.28125 -113.78125 -0.234375 -115.71875 C -0.3125 -121.109375 0.078125 -124.71875 0.375 -125.9375 C 0.8125 -128.03125 0.78125 -130.5625 0.125 -131.125 C -0.109375 -131.5 -0.59375 -132.28125 -0.65625 -133 C -1.1875 -134.375 -2.125 -134.90625 -3.515625 -134.375 C -4.5 -133.875 -4.71875 -134.0625 -4.75 -134.46875 C -5 -135.0625 -5.609375 -135.015625 -7.453125 -134.03125 C -10.4375 -131.9375 -11.328125 -130.53125 -11.234375 -127.28125 C -11.15625 -126.359375 -11.625 -124.6875 -12.15625 -123.859375 C -13.015625 -122.03125 -13.109375 -120.796875 -12.40625 -121.875 C -11.671875 -122.875 -11.421875 -122.375 -11.609375 -119.921875 Z M -1.21875 -153.515625 C -1.65625 -153.890625 -2.296875 -154.109375 -6.046875 -153.984375 C -6.859375 -153.921875 -7.546875 -153.65625 -8.5 -153.078125 C -10.0625 -152.125 -10.375 -151.078125 -10.125 -148.15625 C -9.921875 -145.921875 -9.921875 -145.921875 -9.046875 -145.171875 C -8.59375 -144.828125 -7.3125 -144.015625 -6.15625 -143.515625 C -3.828125 -142.6875 -3.015625 -142.765625 -1.34375 -143.3125 C 0.03125 -143.84375 0.765625 -144.9375 1.015625 -146.671875 C 1.75 -148.578125 0.328125 -152.21875 -1.21875 -153.515625 Z M -1.21875 -153.515625 "/></g></g></g><g fill="#e4e2dd" fill-opacity="1"><g transform="translate(385.307152, 328.139995)"><g><path d="M 88.53125 -127.265625 C 87.359375 -124.203125 83.484375 -118.46875 83.390625 -119.484375 C 83.359375 -119.890625 84.75 -122.75 85.828125 -124.28125 C 88.859375 -128.09375 90.5 -133.625 88.640625 -132.859375 C 88.0625 -132.625 88.0625 -132.625 88.1875 -133.421875 C 88.359375 -133.84375 88.6875 -134.703125 88.859375 -135.125 C 89.09375 -136.890625 87.640625 -135.015625 85.078125 -130.625 C 77.609375 -118.359375 68.90625 -108.234375 63.9375 -105.671875 C 62.578125 -105.140625 61.078125 -104.59375 60.671875 -104.5625 C 58.828125 -104.609375 53.796875 -109.96875 51.671875 -114.359375 C 50.4375 -116.796875 48.109375 -124.9375 45.78125 -134.109375 C 43.671875 -141.859375 40.28125 -149.3125 38.15625 -150.328125 C 37.296875 -150.671875 36.234375 -151.1875 35.484375 -151.734375 C 34.375 -152.65625 33.75 -152.90625 31.421875 -152.703125 C 26.03125 -152.625 23.609375 -150.078125 18.953125 -140.515625 C 15.078125 -132.421875 11.984375 -124.625 14.890625 -129.984375 C 16.203125 -132.328125 16.21875 -132.125 13.34375 -124.34375 C 11.28125 -118.765625 10.4375 -116.859375 11.046875 -119.140625 C 11.203125 -119.78125 11 -119.75 10.671875 -118.703125 C 9.46875 -116.359375 7.03125 -108.015625 5.359375 -100.546875 C 4.46875 -96.703125 3.84375 -94.390625 3.609375 -94.78125 C 0.59375 -104.890625 -1.140625 -124.8125 0.28125 -135.109375 C 1.046875 -140.375 0.828125 -142.890625 -0.3125 -144.21875 C -0.53125 -144.40625 -0.796875 -145 -0.609375 -145.21875 C -0.078125 -146.171875 -1.546875 -146.65625 -4.265625 -146.421875 C -7.171875 -145.953125 -7.359375 -145.734375 -8.515625 -142.6875 C -8.84375 -141.640625 -9.5625 -140.5625 -9.734375 -140.234375 C -10.140625 -140.203125 -10.296875 -139.796875 -10.265625 -139.390625 C -10.4375 -138.96875 -10.671875 -138.328125 -10.859375 -138.109375 C -11.25 -137.875 -11.25 -135.515625 -11.109375 -131.671875 C -9.828125 -107.5625 -5.15625 -87.921875 -0.15625 -85.5 C 0.703125 -84.953125 2 -84.15625 2.65625 -83.609375 C 3.609375 -83.09375 4.859375 -82.78125 6.5 -82.71875 C 7.8125 -82.84375 9.046875 -82.546875 9.25 -82.5625 C 9.9375 -81.796875 13.578125 -83.140625 13.109375 -84.125 C 13.09375 -84.328125 13.0625 -86.859375 13.234375 -89.53125 C 13.640625 -96.484375 16.25 -107.5 20.359375 -119.765625 C 23.53125 -129 29.078125 -142.21875 30.203125 -143.53125 C 30.734375 -144.296875 30.9375 -144.3125 31.640625 -143.265625 C 32.875 -141.9375 35.59375 -134.015625 37.703125 -126.265625 C 39.390625 -119.796875 41.765625 -113.5 43.171875 -111.578125 C 46.296875 -107.078125 49.6875 -104.625 55.734375 -101.578125 C 60.9375 -99.1875 64.546875 -98.59375 67.1875 -100.140625 C 68.15625 -100.640625 69.6875 -101.59375 70.984375 -102.109375 C 73.125 -103.109375 78.109375 -107.921875 81.09375 -112.140625 C 82.203125 -113.46875 83.890625 -116.171875 84.75 -118.078125 C 88.65625 -125.734375 90.46875 -129.25 90.421875 -129.859375 C 90.375 -130.46875 89.5625 -129.171875 88.53125 -127.265625 Z M 86.046875 -129.890625 C 86.25 -129.90625 86.078125 -129.484375 85.625 -128.828125 C 84.21875 -126.375 83.671875 -125.703125 83.84375 -126.125 C 83.796875 -126.53125 85.546875 -129.84375 86.046875 -129.890625 Z M 16.484375 -133.78125 C 16.46875 -134.09375 17.15625 -135.5625 17.84375 -137.0625 C 18.6875 -138.875 19.390625 -139.9375 19.21875 -139.71875 C 19.25 -139.328125 18.78125 -137.75 17.90625 -136.25 C 17.015625 -134.75 16.5 -133.578125 16.484375 -133.78125 Z M 28.125 -146.109375 C 27.671875 -145.65625 26.984375 -144.171875 26.671875 -143.03125 C 26.359375 -141.984375 25.65625 -140.6875 25.296875 -140.25 C 24.71875 -139.796875 23.9375 -138.1875 23.65625 -136.75 C 23.15625 -135.5 22.875 -134.125 22.671875 -134.109375 C 22.5 -133.890625 21.4375 -131.96875 20.3125 -129.53125 C 19.3125 -127.1875 18.421875 -125.71875 18.40625 -125.921875 C 18.359375 -126.53125 19.796875 -130.828125 20.953125 -132.734375 C 21.484375 -133.8125 21.625 -134.546875 21.421875 -134.53125 C 21.21875 -134.5 21.375 -134.9375 21.765625 -135.171875 C 22.15625 -135.40625 22.328125 -135.8125 22.28125 -136.21875 C 22.4375 -136.84375 24.90625 -142.265625 25.125 -142.078125 C 25.53125 -142.109375 25.515625 -142.3125 25.703125 -142.53125 C 25.65625 -143.125 28.1875 -147.75 28.4375 -147.359375 C 28.640625 -147.375 28.484375 -146.75 28.125 -146.109375 Z M 28.125 -146.109375 "/></g></g></g><g fill="#e4e2dd" fill-opacity="1"><g transform="translate(470.566001, 320.676328)"><g><path d="M 75.765625 -118.40625 C 73.203125 -116.25 71.484375 -114.875 72.203125 -115.953125 C 72.953125 -116.828125 78.4375 -121.484375 78.453125 -121.28125 C 78.65625 -121.296875 77.46875 -119.96875 75.765625 -118.40625 Z M 19.078125 -132.15625 C 18.859375 -132.34375 17.953125 -131.078125 17.09375 -129.25 C 12.34375 -120.59375 11.296875 -118.5625 8.765625 -113.765625 C 7.1875 -110.875 5.828125 -107.90625 5.359375 -107.25 C 5.046875 -106.3125 2.90625 -102.859375 0.453125 -99.5 C -1.90625 -96.140625 -4.21875 -93.484375 -4.421875 -93.46875 C -4.625 -93.453125 -4.546875 -94.890625 -4.078125 -96.546875 C -3.5 -99.359375 -2.71875 -101.96875 0.46875 -111 C 1.5 -114.140625 6.375 -124.859375 9.609375 -130.9375 C 10.671875 -132.859375 12.109375 -136.15625 12.75 -138.140625 C 14.015625 -142.3125 14.359375 -142.859375 16.234375 -143.625 C 17.421875 -144.140625 17.640625 -143.953125 18.90625 -141.125 C 19.640625 -139.546875 20.71875 -137.703125 20.78125 -137.109375 C 20.90625 -135.6875 19.71875 -131.828125 19.078125 -132.15625 Z M 89.4375 -137.71875 C 85.53125 -132.40625 67.28125 -115.3125 65.359375 -115.140625 C 65.15625 -115.125 63.203125 -113.953125 61.203125 -112.546875 C 56.484375 -109.390625 51.703125 -107.140625 48.1875 -106.625 L 45.578125 -106.1875 L 43.96875 -109.515625 C 42.703125 -112.15625 42.34375 -113.953125 42.015625 -117.6875 C 41.40625 -124.765625 40.96875 -134.28125 41.34375 -137.09375 C 42.578125 -145.125 41.1875 -151.625 38.421875 -151.796875 C 37.625 -151.71875 36.984375 -152.078125 36.9375 -152.484375 C 36.609375 -153.953125 36.609375 -153.953125 35.953125 -153.296875 C 35.59375 -152.765625 35.1875 -152.734375 34.984375 -152.71875 C 34.734375 -153.1875 33.71875 -153.296875 32.90625 -153.234375 C 31.171875 -153.28125 30.78125 -153.046875 28.453125 -149.484375 L 25.65625 -145.46875 L 23.796875 -146.75 C 21.609375 -148.671875 19.5 -149.3125 16.578125 -149.0625 C 11.828125 -148.640625 9.984375 -147.453125 6.140625 -141.421875 C 3.453125 -137.328125 2.421875 -136.3125 1.578125 -136.640625 C 0.546875 -136.765625 -0.015625 -136.09375 -1.65625 -132.90625 C -7.203125 -122.953125 -11.859375 -109.921875 -14.09375 -99.25 C -15.265625 -93.125 -15.234375 -92.71875 -14.5 -90.046875 C -13.0625 -85.1875 -10.953125 -82.21875 -9.5 -82.953125 C -9.109375 -82.984375 -8.28125 -82.84375 -7.625 -82.515625 C -4.9375 -80.703125 0.484375 -82.8125 3.65625 -87.265625 C 6.015625 -90.625 10.03125 -96.984375 10.515625 -98.4375 C 11.25 -100.65625 12.625 -103.515625 16.03125 -110.03125 C 17.40625 -112.6875 19.59375 -117.046875 20.78125 -119.59375 C 23.65625 -125.234375 25.8125 -129.609375 26.515625 -131 C 26.875 -131.4375 27.90625 -133.546875 28.734375 -135.78125 C 30.90625 -140.140625 31.8125 -141.234375 31.46875 -138.25 C 31.171875 -137 31.34375 -132.84375 31.5 -128.671875 C 31.890625 -119.546875 32.984375 -114.046875 35.28125 -111.09375 C 36.078125 -109.9375 37.265625 -108.109375 37.5625 -107.125 C 39.5625 -102.71875 45.8125 -98.890625 51.4375 -98.359375 C 54.609375 -98.21875 59.078125 -99.640625 63.8125 -102.5 C 65.34375 -103.546875 67.21875 -104.328125 68.03125 -104.390625 C 68.640625 -104.4375 69.75 -105.5625 70.96875 -106.703125 C 72.625 -108.96875 78.90625 -116.125 82.71875 -120.234375 C 83.84375 -121.34375 84.953125 -122.765625 85.140625 -122.984375 C 85.296875 -123.40625 87.390625 -126.234375 89.53125 -129.578125 C 93.609375 -135.328125 93.78125 -135.75 93.40625 -137.671875 C 92.9375 -140.78125 91.734375 -140.671875 89.4375 -137.71875 Z M 89.4375 -137.71875 "/></g></g></g><g fill="#e4e2dd" fill-opacity="1"><g transform="translate(559.562204, 312.885488)"><g><path d="M 33.03125 -158.84375 C 31.9375 -159.5625 30.828125 -159.46875 28.40625 -159.25 C 24.09375 -158.671875 22.78125 -158.359375 18.4375 -155.640625 C 11.953125 -152 8.875 -148.59375 0.40625 -135.921875 C -0.140625 -135.28125 -0.3125 -137.203125 -0.125 -144.453125 L 0.296875 -153.640625 L -1.546875 -153.6875 C -2.671875 -153.796875 -3.703125 -153.984375 -4.125 -154.15625 C -5.015625 -154.90625 -9.203125 -152.8125 -9.703125 -151.546875 C -11.421875 -146.8125 -11.359375 -125.125 -9.6875 -112.953125 C -9.359375 -111.5625 -9.4375 -107.796875 -9.53125 -104.21875 C -9.921875 -99.40625 -9.71875 -96.96875 -9.21875 -93.65625 C -8.140625 -88.25 -4.890625 -79.171875 -3.3125 -78.5 C -2.875 -78.125 -1.765625 -77.21875 -1.09375 -76.453125 C -0.40625 -75.609375 0.78125 -74.6875 1.625 -74.34375 C 3.328125 -73.671875 4.109375 -73.953125 3.640625 -74.734375 C 3.390625 -75.3125 5.078125 -75.671875 5.9375 -75.140625 C 6.171875 -74.75 6.8125 -74.59375 6.984375 -74.8125 C 7.78125 -75.09375 7.75 -77.640625 7.25 -78.828125 C 5.3125 -82.21875 3.5625 -88.28125 2.84375 -94.109375 C 1.265625 -106.390625 1.171875 -107.5 2.125 -111.75 C 3.203125 -118.046875 6.34375 -127.484375 7.171875 -127.359375 C 7.359375 -127.375 7.546875 -127.59375 7.328125 -127.78125 C 7.3125 -127.984375 7.78125 -129.5625 8.609375 -130.859375 C 9.484375 -132.34375 10.15625 -133.953125 10.125 -134.359375 C 10.078125 -134.953125 10.4375 -135.390625 10.828125 -135.421875 C 11.03125 -135.4375 12.28125 -136.578125 13.34375 -138.40625 C 16.3125 -142.828125 20.65625 -147.78125 23.5 -150.078125 C 25.125 -151.4375 26.03125 -152.625 26.015625 -152.828125 C 25.578125 -153.40625 28.578125 -155.09375 31.734375 -156.1875 C 34.8125 -157.078125 34.953125 -157.78125 33.03125 -158.84375 Z M 19.359375 -153.265625 C 15.234375 -150.375 10.3125 -145.96875 10.78125 -145.40625 C 10.796875 -145.203125 10.46875 -144.34375 9.9375 -143.484375 C 9.21875 -142.421875 7.796875 -140.15625 6.421875 -138.203125 C 5.1875 -136.140625 2.625 -131.75 1.0625 -128.5625 C -1.9375 -122.1875 -2.3125 -121.734375 -2.1875 -122.578125 C -2.1875 -124.921875 4.28125 -137.09375 7.859375 -141.78125 C 10.015625 -144.71875 9.984375 -145.125 8.828125 -144.40625 C 8.078125 -143.9375 7.484375 -143.6875 7.46875 -143.890625 C 7.46875 -143.890625 8.953125 -145.453125 10.609375 -147.3125 C 13.6875 -150.4375 19.4375 -154.703125 22 -155.75 C 24.640625 -157.078125 23.515625 -155.890625 19.359375 -153.265625 Z M 19.359375 -153.265625 "/></g></g></g><g fill="#e4e2dd" fill-opacity="1"><g transform="translate(596.841184, 309.62204)"><g><path d="M 45.203125 -133.640625 C 40.9375 -125.328125 33.703125 -114.921875 29.1875 -109.75 C 24.46875 -104.34375 14 -97.125 8.546875 -95.421875 C 0.015625 -92.734375 -0.59375 -92.6875 -2.328125 -92.9375 C -5.0625 -93.828125 -6.53125 -95.734375 -7.375 -100.640625 C -7.59375 -103.171875 -7.84375 -105.890625 -7.71875 -106.921875 C -7.359375 -108.375 -7.375 -108.578125 -4.703125 -108.421875 C -2.359375 -108.21875 -1.578125 -108.6875 1.8125 -110.609375 C 6.953125 -113.609375 12.3125 -120.796875 13.84375 -125.71875 C 16.109375 -134.46875 11.671875 -145.890625 4.546875 -148 C 2.65625 -148.65625 1.546875 -148.5625 -0.84375 -147.9375 C -4.703125 -146.78125 -8.375 -143.3125 -7.84375 -141.921875 C -7.359375 -141.171875 -7.53125 -140.75 -8.140625 -140.6875 C -9.96875 -140.53125 -16.03125 -126.140625 -17.5 -118.578125 C -17.875 -115.796875 -18.28125 -111.1875 -18.234375 -108.234375 C -18 -103.265625 -17.6875 -102.078125 -16.09375 -97.84375 C -14.1875 -93.4375 -13.515625 -92.671875 -10.875 -90.578125 C -9.265625 -89.484375 -6.6875 -88.171875 -5.359375 -87.90625 C -4.109375 -87.609375 -2.234375 -87.15625 -1.390625 -86.828125 C 1.671875 -85.65625 13.40625 -87.5 17.1875 -89.875 C 17.96875 -90.328125 19.875 -91.421875 21.75 -92.40625 C 29.359375 -96.015625 36.0625 -102 41.28125 -109.890625 C 43.078125 -112.59375 44.96875 -115.5 45.46875 -116.578125 C 46.21875 -117.4375 47.75 -120.9375 49.359375 -124.4375 C 51.21875 -129 51.75 -131.046875 51.71875 -133.625 C 51.765625 -135.4375 51.8125 -137.1875 52.171875 -137.625 C 52.34375 -138.046875 52.5625 -140.296875 52.5625 -142.640625 L 52.609375 -146.609375 L 50.84375 -143.71875 C 49.875 -142 47.421875 -137.421875 45.203125 -133.640625 Z M -0.375 -133.234375 C 0.84375 -135.765625 1.859375 -138.203125 1.8125 -138.609375 C 1.796875 -138.8125 1.984375 -139.03125 2.390625 -138.859375 C 3.765625 -138.359375 3.1875 -132.203125 1.734375 -127.90625 C 0.6875 -125.765625 -0.96875 -122.671875 -2.421875 -120.71875 C -3.921875 -119.171875 -5.5 -117.5 -5.90625 -117.453125 C -6.71875 -117.390625 -3.078125 -128.203125 -0.375 -133.234375 Z M -0.375 -133.234375 "/></g></g></g><g fill="#e4e2dd" fill-opacity="1"><g transform="translate(643.009061, 305.580446)"><g><path d="M 62.984375 -132.859375 C 61.734375 -133.15625 61.734375 -133.15625 62.875 -134.1875 C 63.71875 -135.078125 63.71875 -135.078125 61.953125 -135.3125 C 58.75 -135.84375 50.859375 -132 42.3125 -126.0625 C 37.0625 -122.03125 27.640625 -113.375 28.125 -112.5 C 28.34375 -112.3125 28.15625 -112.09375 27.9375 -112.28125 C 27.296875 -112.640625 16.53125 -101.9375 14.5625 -98.796875 C 13.734375 -97.71875 13.53125 -97.703125 9.765625 -99.90625 C 2.625 -103.65625 -0.9375 -108.34375 -2.15625 -115.34375 C -3.234375 -120.65625 -2.703125 -126.28125 0.40625 -135.921875 C 7.796875 -158.6875 20.375 -162.71875 20.09375 -161.265625 C 19.96875 -160.4375 19.09375 -158.640625 20.578125 -158.15625 C 26.296875 -156.609375 26.28125 -164.859375 25.640625 -166.546875 C 25.109375 -167.921875 24.1875 -169.265625 22.96875 -169.15625 C -8.90625 -169.125 -13.609375 -129.921875 -13.046875 -123.578125 C -12.4375 -116.484375 -12.375 -115.890625 -10.171875 -111.5 C -6.859375 -105.0625 -2.28125 -100.28125 4.296875 -96.28125 C 7.203125 -94.484375 9.59375 -92.765625 9.609375 -92.5625 C 9.625 -92.359375 9.28125 -91.71875 8.90625 -91.28125 C 3.703125 -84.3125 -2.140625 -74.421875 -5.71875 -65.359375 C -8.65625 -58.28125 -8.421875 -55.546875 -5.203125 -50.03125 C -2.25 -45.515625 3.609375 -40.125 6.28125 -39.9375 C 12.03125 -39.4375 20.578125 -41.8125 27.921875 -46.21875 C 34.234375 -49.734375 38.015625 -54.234375 40.625 -60.453125 C 42.25 -64.984375 42.21875 -65.390625 41.71875 -71.0625 C 41.265625 -76.203125 40.96875 -77.375 39.734375 -79.828125 C 37.578125 -83.5 33.296875 -87.109375 27.28125 -90.765625 L 22.234375 -93.875 L 23.75 -96.140625 C 30.953125 -105.734375 49.328125 -122.5 59.03125 -127.921875 C 63.578125 -130.671875 65.15625 -132.4375 62.984375 -132.859375 Z M 26.796875 -84.703125 C 29.0625 -83.0625 32.328125 -76.21875 32.671875 -72.28125 C 32.953125 -69.15625 31.734375 -64.265625 30.6875 -64.578125 C 30.375 -64.75 29.25 -63.640625 28.171875 -61.921875 C 24.90625 -56.34375 19.84375 -52.4375 12.921875 -50.09375 C 3.015625 -46.796875 1.453125 -47.453125 2.046875 -55.65625 C 2.5625 -63.640625 8.078125 -75.125 17.890625 -88.71875 C 18.265625 -89.15625 24.078125 -86.484375 26.796875 -84.703125 Z M 45.546875 -125.125 C 43.078125 -122.96875 42.015625 -122.46875 42.515625 -123.640625 C 42.953125 -124.484375 47.453125 -127.734375 47.671875 -127.546875 C 47.890625 -127.359375 46.953125 -126.46875 45.546875 -125.125 Z M 45.546875 -125.125 "/></g></g></g></svg>